ISO-10303-21;
HEADER;
/* CP_Radial_D13.5mm_P5.00mm_H8.00mm.step 3D STEP model for use in ECAD systems
 * Copyright (C) 2026, KiCAD
 *
 * This work is licensed under the
 * [Creative Commons CC-BY-SA 4.0 License](https://creativecommons.org/licenses/by-sa/4.0/legalcode),
 * with the following exception:
 *
 * To the extent that the creation of electronic designs that use 'Licensed Material' can be
 * considered to be 'Adapted Material', then the copyright holder waives article 3 of the license
 * with respect to these designs and any generated files which use data provided as part of the
 * 'Licensed Material'.
 *
 * You are free to use the library data in your own projects without the obligation to share your
 * project files under this or any other license agreement. However, if you wish to distribute
 * these libraries, or parts thereof (including in modified form) as a collection then the exception
 * above does not apply. Please refer to
 * https://gitlab.com/kicad/libraries/kicad-packages3D/-/blob/master/LICENSE.md for further clarification
 * of the exception.
 *
 * Disclaimer of Warranties and Limitation of Liability.
 * These libraries are provided in the hope that they will be useful, but are provided without warranty of any kind, express or implied.
 * USE 3D CAD DATA AT YOUR OWN RISK
 * DO NOT RELY UPON ANY INFORMATION FOUND HERE WITHOUT INDEPENDENT VERIFICATION.
 */

FILE_DESCRIPTION(
/* description */ ('model of CP_Radial_D13.5mm_P5.00mm_H8.00mm'),
/* implementation_level */ '2;1');

FILE_NAME(
/* name */ 'CP_Radial_D13.5mm_P5.00mm_H8.00mm.step',
/* time_stamp */ '1970-01-01T00:00:00',
/* author */ ('KiCAD','kicad'),
/* organization */ ('OCCT'),
/* preprocessor_version */ '',
/* originating_system */ 'KiCAD',
/* authorisation */ '');

FILE_SCHEMA(('AUTOMOTIVE_DESIGN { 1 0 10303 214 1 1 1 1 }'));
ENDSEC;

DATA;
#1=APPLICATION_PROTOCOL_DEFINITION('international standard','automotive_design',2000,#2);
#2=APPLICATION_CONTEXT('core data for automotive mechanical design processes');
#3=SHAPE_DEFINITION_REPRESENTATION(#4,#10);
#4=PRODUCT_DEFINITION_SHAPE('','',#5);
#5=PRODUCT_DEFINITION('design','',#6,#9);
#6=PRODUCT_DEFINITION_FORMATION('','',#7);
#7=PRODUCT('CP_Radial_D13.5mm_P5.00mm_H8.00mm','CP_Radial_D13.5mm_P5.00mm_H8.00mm','',(#8));
#8=PRODUCT_CONTEXT('',#2,'mechanical');
#9=PRODUCT_DEFINITION_CONTEXT('part definition',#2,'design');
#10=ADVANCED_BREP_SHAPE_REPRESENTATION('',(#11,#15),#1350);
#11=AXIS2_PLACEMENT_3D('',#12,#13,#14);
#12=CARTESIAN_POINT('',(0.,0.,0.));
#13=DIRECTION('',(0.,0.,1.));
#14=DIRECTION('',(1.,0.,-0.));
#15=BREP_WITH_VOIDS('',#16,(#1281));
#16=CLOSED_SHELL('',(#17,#82,#148,#247,#275,#291,#352,#363,#418,#425,#436,#482,#506,#524,#664,#677,#689,#702,#780,#803,#814,#842,#851,#862,#872,#897,#909,#932,#950,#968,#979,#1029,#1035,#1041,#1111,#1129,#1143,#1190,#1205,#1213,#1220,#1234,#1241,#1248,#1262,#1269,#1275));
#17=ADVANCED_FACE('',(#18),#80,.T.);
#18=FACE_BOUND('',#19,.T.);
#19=EDGE_LOOP('',(#20,#28,#37,#42));
#20=ORIENTED_EDGE('',*,*,#21,.F.);
#21=EDGE_CURVE('',#22,#24,#26,.T.);
#22=VERTEX_POINT('',#23);
#23=CARTESIAN_POINT('',(8.736186844451,2.583113168464,0.2));
#24=VERTEX_POINT('',#25);
#25=CARTESIAN_POINT('',(8.736186844451,2.583113168464,1.064979142851));
#26=LINE('',#23,#27);
#27=VECTOR('',#13,1.);
#28=ORIENTED_EDGE('',*,*,#29,.T.);
#29=EDGE_CURVE('',#22,#30,#32,.T.);
#30=VERTEX_POINT('',#31);
#31=CARTESIAN_POINT('',(8.736186844451,-2.583113168464,0.2));
#32=CIRCLE('',#33,6.75);
#33=AXIS2_PLACEMENT_3D('',#34,#35,#36);
#34=CARTESIAN_POINT('',(2.5,0.,0.2));
#35=DIRECTION('',(0.,-0.,1.));
#36=DIRECTION('',(0.923879532511,0.382683432365,0.));
#37=ORIENTED_EDGE('',*,*,#38,.T.);
#38=EDGE_CURVE('',#30,#39,#41,.T.);
#39=VERTEX_POINT('',#40);
#40=CARTESIAN_POINT('',(8.736186844451,-2.583113168464,1.064979142851));
#41=LINE('',#31,#27);
#42=ORIENTED_EDGE('',*,*,#43,.F.);
#43=EDGE_CURVE('',#24,#39,#44,.T.);
#44=B_SPLINE_CURVE_WITH_KNOTS('',12,(#45,#46,#47,#48,#49,#50,#51,#52,#53,#54,#55,#56,#57,#58,#59,#60,#61,#62,#63,#64,#65,#66,#67,#68,#69,#70,#71,#72,#73,#74,#75,#76,#77,#78,#79),.UNSPECIFIED.,.F.,.F.,(13,11,11,13),(-1.581162232275,9.587169393849E-16,37.11006322053,38.691225452805),.UNSPECIFIED.);
#45=CARTESIAN_POINT('',(9.341271434624,1.122309744486,1.064979142851));
#46=CARTESIAN_POINT('',(9.290498281157,1.244886980191,1.064979142851));
#47=CARTESIAN_POINT('',(9.239788661802,1.367310830979,1.064979142851));
#48=CARTESIAN_POINT('',(9.18914257656,1.489581296852,1.064979142851));
#49=CARTESIAN_POINT('',(9.138560025431,1.611698377807,1.064979142851));
#50=CARTESIAN_POINT('',(9.088041008414,1.733662073847,1.064979142851));
#51=CARTESIAN_POINT('',(9.03758552551,1.85547238497,1.064979142851));
#52=CARTESIAN_POINT('',(8.987193576719,1.977129311177,1.064979142851));
#53=CARTESIAN_POINT('',(8.93686516204,2.098632852467,1.064979142851));
#54=CARTESIAN_POINT('',(8.886600281474,2.219983008841,1.064979142851));
#55=CARTESIAN_POINT('',(8.83639893502,2.341179780298,1.064979142851));
#56=CARTESIAN_POINT('',(8.786261122679,2.46222316684,1.064979142851));
#57=CARTESIAN_POINT('',(7.560937655694,5.42041569913,1.064979142851));
#58=CARTESIAN_POINT('',(4.958871958681,7.7176516789,1.064979179761));
#59=CARTESIAN_POINT('',(1.202825417503,8.627742699233,1.064978655721));
#60=CARTESIAN_POINT('',(-2.824798861718,7.443885694149,1.064980757732));
#61=CARTESIAN_POINT('',(-5.823527145815,4.489386012285,1.064976116104));
#62=CARTESIAN_POINT('',(-7.326546564979,7.341238728031E-12,1.064982829078));
#63=CARTESIAN_POINT('',(-5.823527145816,-4.489386012299,1.064976116103));
#64=CARTESIAN_POINT('',(-2.824798861717,-7.443885694139,1.064980757732));
#65=CARTESIAN_POINT('',(1.202825417502,-8.627742699239,1.064978655721));
#66=CARTESIAN_POINT('',(4.958871958682,-7.717651678897,1.064979179761));
#67=CARTESIAN_POINT('',(7.560937655694,-5.42041569913,1.064979142851));
#68=CARTESIAN_POINT('',(8.786261122679,-2.46222316684,1.064979142851));
#69=CARTESIAN_POINT('',(8.83639893502,-2.341179780298,1.064979142851));
#70=CARTESIAN_POINT('',(8.886600281474,-2.219983008841,1.064979142851));
#71=CARTESIAN_POINT('',(8.93686516204,-2.098632852467,1.064979142851));
#72=CARTESIAN_POINT('',(8.987193576719,-1.977129311176,1.064979142851));
#73=CARTESIAN_POINT('',(9.03758552551,-1.85547238497,1.064979142851));
#74=CARTESIAN_POINT('',(9.088041008414,-1.733662073847,1.064979142851));
#75=CARTESIAN_POINT('',(9.138560025431,-1.611698377807,1.064979142851));
#76=CARTESIAN_POINT('',(9.18914257656,-1.489581296851,1.064979142851));
#77=CARTESIAN_POINT('',(9.239788661802,-1.367310830979,1.064979142851));
#78=CARTESIAN_POINT('',(9.290498281157,-1.244886980191,1.064979142851));
#79=CARTESIAN_POINT('',(9.341271434624,-1.122309744486,1.064979142851));
#80=CYLINDRICAL_SURFACE('',#81,6.75);
#81=AXIS2_PLACEMENT_3D('',#34,#13,#36);
#82=ADVANCED_FACE('',(#83),#146,.T.);
#83=FACE_BOUND('',#84,.T.);
#84=EDGE_LOOP('',(#85,#86,#92,#93,#97,#104,#118,#126,#140,#144));
#85=ORIENTED_EDGE('',*,*,#38,.F.);
#86=ORIENTED_EDGE('',*,*,#87,.T.);
#87=EDGE_CURVE('',#30,#22,#88,.T.);
#88=CIRCLE('',#89,6.75);
#89=AXIS2_PLACEMENT_3D('',#34,#90,#91);
#90=DIRECTION('',(-0.,0.,1.));
#91=DIRECTION('',(0.923879532511,-0.382683432365,0.));
#92=ORIENTED_EDGE('',*,*,#21,.T.);
#93=ORIENTED_EDGE('',*,*,#94,.T.);
#94=EDGE_CURVE('',#24,#95,#26,.T.);
#95=VERTEX_POINT('',#96);
#96=CARTESIAN_POINT('',(8.736186844451,2.583113168464,1.2));
#97=ORIENTED_EDGE('',*,*,#98,.F.);
#98=EDGE_CURVE('',#99,#95,#101,.T.);
#99=VERTEX_POINT('',#100);
#100=CARTESIAN_POINT('',(9.245547475022,0.245131112315,1.2));
#101=CIRCLE('',#102,6.75);
#102=AXIS2_PLACEMENT_3D('',#103,#90,#91);
#103=CARTESIAN_POINT('',(2.5,0.,1.2));
#104=ORIENTED_EDGE('',*,*,#105,.T.);
#105=EDGE_CURVE('',#99,#106,#108,.T.);
#106=VERTEX_POINT('',#107);
#107=CARTESIAN_POINT('',(9.25,1.E-03,1.));
#108=B_SPLINE_CURVE_WITH_KNOTS('',8,(#109,#110,#111,#112,#113,#114,#115,#116,#117),.UNSPECIFIED.,.F.,.F.,(9,9),(0.,1.),.PIECEWISE_BEZIER_KNOTS.);
#109=CARTESIAN_POINT('',(9.245547470646,0.245131232741,1.2000006));
#110=CARTESIAN_POINT('',(9.2458470178,0.236888262115,1.158931391392));
#111=CARTESIAN_POINT('',(9.246425477988,0.220653026784,1.118966327986));
#112=CARTESIAN_POINT('',(9.247240248031,0.196520889908,1.082260233047));
#113=CARTESIAN_POINT('',(9.248167534237,0.165383406182,1.050699259383));
#114=CARTESIAN_POINT('',(9.24902960171,0.128531736548,1.025791707153));
#115=CARTESIAN_POINT('',(9.249667424843,8.761072648999E-02,1.008665780804));
#116=CARTESIAN_POINT('',(9.249993488727,4.44510915907E-02,1.));
#117=CARTESIAN_POINT('',(9.249999925926,1.000000000001E-03,1.));
#118=ORIENTED_EDGE('',*,*,#119,.F.);
#119=EDGE_CURVE('',#120,#106,#122,.T.);
#120=VERTEX_POINT('',#121);
#121=CARTESIAN_POINT('',(9.25,-1.E-03,1.));
#122=LINE('',#123,#124);
#123=CARTESIAN_POINT('',(9.25,-0.25,1.));
#124=VECTOR('',#125,1.);
#125=DIRECTION('',(0.,1.,0.));
#126=ORIENTED_EDGE('',*,*,#127,.F.);
#127=EDGE_CURVE('',#128,#120,#130,.T.);
#128=VERTEX_POINT('',#129);
#129=CARTESIAN_POINT('',(9.245547475022,-0.245131112315,1.2));
#130=B_SPLINE_CURVE_WITH_KNOTS('',8,(#131,#132,#133,#134,#135,#136,#137,#138,#139),.UNSPECIFIED.,.F.,.F.,(9,9),(0.,1.),.PIECEWISE_BEZIER_KNOTS.);
#131=CARTESIAN_POINT('',(9.245547470646,-0.245131232741,1.2000006));
#132=CARTESIAN_POINT('',(9.2458470178,-0.236888262115,1.158931391392));
#133=CARTESIAN_POINT('',(9.246425477988,-0.220653026784,1.118966327986));
#134=CARTESIAN_POINT('',(9.247240248031,-0.196520889908,1.082260233047));
#135=CARTESIAN_POINT('',(9.248167534237,-0.165383406182,1.050699259383));
#136=CARTESIAN_POINT('',(9.24902960171,-0.128531736548,1.025791707153));
#137=CARTESIAN_POINT('',(9.249667424843,-8.761072649002E-02,1.008665780804));
#138=CARTESIAN_POINT('',(9.249993488727,-4.445109159066E-02,1.));
#139=CARTESIAN_POINT('',(9.249999925926,-9.999999999986E-04,1.));
#140=ORIENTED_EDGE('',*,*,#141,.F.);
#141=EDGE_CURVE('',#142,#128,#101,.T.);
#142=VERTEX_POINT('',#143);
#143=CARTESIAN_POINT('',(8.736186844451,-2.583113168464,1.2));
#144=ORIENTED_EDGE('',*,*,#145,.F.);
#145=EDGE_CURVE('',#39,#142,#41,.T.);
#146=CYLINDRICAL_SURFACE('',#147,6.75);
#147=AXIS2_PLACEMENT_3D('',#34,#13,#91);
#148=ADVANCED_FACE('',(#149),#211,.F.);
#149=FACE_BOUND('',#150,.F.);
#150=EDGE_LOOP('',(#151,#162,#202,#42));
#151=ORIENTED_EDGE('',*,*,#152,.T.);
#152=EDGE_CURVE('',#24,#153,#155,.T.);
#153=VERTEX_POINT('',#154);
#154=CARTESIAN_POINT('',(8.661934551612,2.552356861733,1.269338405373));
#155=B_SPLINE_CURVE_WITH_KNOTS('',7,(#25,#156,#157,#158,#159,#160,#161,#154),.UNSPECIFIED.,.F.,.F.,(8,8),(0.,1.),.PIECEWISE_BEZIER_KNOTS.);
#156=CARTESIAN_POINT('',(8.736186844451,2.583113168464,1.096349913936));
#157=CARTESIAN_POINT('',(8.732650628006,2.581648419653,1.128446089086));
#158=CARTESIAN_POINT('',(8.725286676459,2.57859817105,1.160458036605));
#159=CARTESIAN_POINT('',(8.714043655796,2.573941159409,1.191401396376));
#160=CARTESIAN_POINT('',(8.699288260174,2.567829274424,1.220266942359));
#161=CARTESIAN_POINT('',(8.681677572801,2.560534688872,1.246371874593));
#162=ORIENTED_EDGE('',*,*,#163,.T.);
#163=EDGE_CURVE('',#153,#164,#166,.T.);
#164=VERTEX_POINT('',#165);
#165=CARTESIAN_POINT('',(8.661934551612,-2.552356861733,1.269338405373));
#166=B_SPLINE_CURVE_WITH_KNOTS('',12,(#167,#168,#169,#170,#171,#172,#173,#174,#175,#176,#177,#178,#179,#180,#181,#182,#183,#184,#185,#186,#187,#188,#189,#190,#191,#192,#193,#194,#195,#196,#197,#198,#199,#200,#201),.UNSPECIFIED.,.F.,.F.,(13,11,11,13),(-1.581162232275,9.587169393849E-16,37.11006322053,38.691225452805),.UNSPECIFIED.);
#167=CARTESIAN_POINT('',(9.267019141784,1.091553437754,1.269338405373));
#168=CARTESIAN_POINT('',(9.215649769816,1.21557007225,1.269338405373));
#169=CARTESIAN_POINT('',(9.164452335325,1.339171612958,1.269338405373));
#170=CARTESIAN_POINT('',(9.11342683831,1.462358059879,1.269338405373));
#171=CARTESIAN_POINT('',(9.062573278771,1.585129413012,1.269338405373));
#172=CARTESIAN_POINT('',(9.011891656709,1.707485672358,1.269338405373));
#173=CARTESIAN_POINT('',(8.961381972123,1.829426837917,1.269338405373));
#174=CARTESIAN_POINT('',(8.911044225013,1.950952909688,1.269338405373));
#175=CARTESIAN_POINT('',(8.86087841538,2.072063887672,1.269338405373));
#176=CARTESIAN_POINT('',(8.810884543223,2.192759771868,1.269338405373));
#177=CARTESIAN_POINT('',(8.761062608543,2.313040562277,1.269338405373));
#178=CARTESIAN_POINT('',(8.711412611339,2.432906258899,1.269338405373));
#179=CARTESIAN_POINT('',(7.500678681063,5.355876533796,1.269338405373));
#180=CARTESIAN_POINT('',(4.929541305626,7.625950961615,1.269338398908));
#181=CARTESIAN_POINT('',(1.217875704829,8.524725660687,1.269338490683));
#182=CARTESIAN_POINT('',(-2.760435048102,7.355243887429,1.269338122561));
#183=CARTESIAN_POINT('',(-5.725328996872,4.436282423123,1.269338935445));
#184=CARTESIAN_POINT('',(-7.208826392694,-7.638334409421E-14,1.269337759806));
#185=CARTESIAN_POINT('',(-5.725328996872,-4.436282423123,1.269338935445));
#186=CARTESIAN_POINT('',(-2.760435048102,-7.355243887428,1.26933812256));
#187=CARTESIAN_POINT('',(1.217875704829,-8.524725660688,1.269338490684));
#188=CARTESIAN_POINT('',(4.929541305626,-7.625950961614,1.269338398908));
#189=CARTESIAN_POINT('',(7.500678681063,-5.355876533797,1.269338405373));
#190=CARTESIAN_POINT('',(8.711412611339,-2.432906258899,1.269338405373));
#191=CARTESIAN_POINT('',(8.761062608543,-2.313040562277,1.269338405373));
#192=CARTESIAN_POINT('',(8.810884543223,-2.192759771868,1.269338405373));
#193=CARTESIAN_POINT('',(8.86087841538,-2.072063887672,1.269338405373));
#194=CARTESIAN_POINT('',(8.911044225013,-1.950952909688,1.269338405373));
#195=CARTESIAN_POINT('',(8.961381972123,-1.829426837917,1.269338405373));
#196=CARTESIAN_POINT('',(9.011891656709,-1.707485672358,1.269338405373));
#197=CARTESIAN_POINT('',(9.062573278771,-1.585129413012,1.269338405373));
#198=CARTESIAN_POINT('',(9.11342683831,-1.462358059879,1.269338405373));
#199=CARTESIAN_POINT('',(9.164452335325,-1.339171612958,1.269338405373));
#200=CARTESIAN_POINT('',(9.215649769816,-1.21557007225,1.269338405373));
#201=CARTESIAN_POINT('',(9.267019141784,-1.091553437754,1.269338405373));
#202=ORIENTED_EDGE('',*,*,#203,.F.);
#203=EDGE_CURVE('',#39,#164,#204,.T.);
#204=B_SPLINE_CURVE_WITH_KNOTS('',7,(#40,#205,#206,#207,#208,#209,#210,#165),.UNSPECIFIED.,.F.,.F.,(8,8),(0.,1.),.PIECEWISE_BEZIER_KNOTS.);
#205=CARTESIAN_POINT('',(8.736186844451,-2.583113168464,1.096349913936));
#206=CARTESIAN_POINT('',(8.732650628008,-2.581648419654,1.128446089086));
#207=CARTESIAN_POINT('',(8.725286676455,-2.578598171048,1.160458036605));
#208=CARTESIAN_POINT('',(8.714043655799,-2.57394115941,1.191401396376));
#209=CARTESIAN_POINT('',(8.699288260173,-2.567829274424,1.220266942359));
#210=CARTESIAN_POINT('',(8.681677572801,-2.560534688872,1.246371874593));
#211=( BOUNDED_SURFACE() B_SPLINE_SURFACE(2,12,((#45,#46,#47,#48,#49,#50,#51,#52,#53,#54,#55,#56,#57,#58,#59,#60,#61,#62,#63,#64,#65,#66,#67,#68,#69,#70,#71,#72,#73,#74,#75,#76,#77,#78,#79),(#212,#213,#214,#215,#216,#217,#218,#219,#220,#221,#222,#223,#224,#225,#226,#227,#228,#229,#230,#231,#232,#233,#234,#235,#236,#237,#238,#239,#240,#241,#242,#243,#244,#245,#246),(#167,#168,#169,#170,#171,#172,#173,#174,#175,#176,#177,#178,#179,#180,#181,#182,#183,#184,#185,#186,#187,#188,#189,#190,#191,#192,#193,#194,#195,#196,#197,#198,#199,#200,#201)),.UNSPECIFIED.,.F.,.F.,.F.) B_SPLINE_SURFACE_WITH_KNOTS((3,3),(13,11,11,13),(0.,37.11006322053),(-1.581162232275,9.587169393849E-16,37.11006322053,38.691225452805),.UNSPECIFIED.) GEOMETRIC_REPRESENTATION_ITEM() RATIONAL_B_SPLINE_SURFACE(((1.,1.,1.,1.,1.,1.,1.,1.,1.,1.,1.,1.,1.,1.,1.,1.,1.,1.,1.,1.,1.,1.,1.,1.,1.,1.,1.,1.,1.,1.,1.,1.,1.,1.,1.),(0.93061798229,0.93061798229,0.93061798229,0.93061798229,0.93061798229,0.93061798229,0.93061798229,0.93061798229,0.93061798229,0.93061798229,0.93061798229,0.93061798229,0.93061798229,0.93061801843,0.930617505331,0.930619563451,0.93061501874,0.930621591548,0.930615018741,0.930619563451,0.930617505331,0.930618018429,0.93061798229,0.93061798229,0.93061798229,0.93061798229,0.93061798229,0.93061798229,0.93061798229,0.93061798229,0.93061798229,0.93061798229,0.93061798229,0.93061798229,0.93061798229),(1.,1.,1.,1.,1.,1.,1.,1.,1.,1.,1.,1.,1.,1.,1.,1.,1.,1.,1.,1.,1.,1.,1.,1.,1.,1.,1.,1.,1.,1.,1.,1.,1.,1.,1.))) REPRESENTATION_ITEM('') SURFACE() );
#212=CARTESIAN_POINT('',(9.341271434624,1.122309744486,1.182962690499));
#213=CARTESIAN_POINT('',(9.290498281157,1.244886980191,1.182962690499));
#214=CARTESIAN_POINT('',(9.239788661802,1.367310830979,1.182962690499));
#215=CARTESIAN_POINT('',(9.18914257656,1.489581296852,1.182962690499));
#216=CARTESIAN_POINT('',(9.138560025431,1.611698377807,1.182962690499));
#217=CARTESIAN_POINT('',(9.088041008414,1.733662073847,1.182962690499));
#218=CARTESIAN_POINT('',(9.03758552551,1.85547238497,1.182962690499));
#219=CARTESIAN_POINT('',(8.987193576719,1.977129311177,1.182962690499));
#220=CARTESIAN_POINT('',(8.93686516204,2.098632852467,1.182962690499));
#221=CARTESIAN_POINT('',(8.886600281474,2.219983008841,1.182962690499));
#222=CARTESIAN_POINT('',(8.83639893502,2.341179780298,1.182962690499));
#223=CARTESIAN_POINT('',(8.786261122679,2.46222316684,1.182962690499));
#224=CARTESIAN_POINT('',(7.560937655695,5.42041569913,1.182962690499));
#225=CARTESIAN_POINT('',(4.958871600454,7.717651283067,1.182962693204));
#226=CARTESIAN_POINT('',(1.202825286048,8.627746456381,1.182962654796));
#227=CARTESIAN_POINT('',(-2.824790624247,7.443874988261,1.182962808858));
#228=CARTESIAN_POINT('',(-5.823552387821,4.489398296427,1.18296246866));
#229=CARTESIAN_POINT('',(-7.326509945408,-2.511768570912E-12,1.182962960671));
#230=CARTESIAN_POINT('',(-5.823552387817,-4.489398296423,1.18296246866));
#231=CARTESIAN_POINT('',(-2.824790624251,-7.443874988265,1.182962808859));
#232=CARTESIAN_POINT('',(1.20282528605,-8.62774645638,1.182962654796));
#233=CARTESIAN_POINT('',(4.958871600453,-7.717651283067,1.182962693204));
#234=CARTESIAN_POINT('',(7.560937655695,-5.42041569913,1.182962690499));
#235=CARTESIAN_POINT('',(8.786261122679,-2.46222316684,1.182962690499));
#236=CARTESIAN_POINT('',(8.83639893502,-2.341179780298,1.182962690499));
#237=CARTESIAN_POINT('',(8.886600281474,-2.219983008841,1.182962690499));
#238=CARTESIAN_POINT('',(8.93686516204,-2.098632852467,1.182962690499));
#239=CARTESIAN_POINT('',(8.987193576719,-1.977129311177,1.182962690499));
#240=CARTESIAN_POINT('',(9.03758552551,-1.85547238497,1.182962690499));
#241=CARTESIAN_POINT('',(9.088041008414,-1.733662073847,1.182962690499));
#242=CARTESIAN_POINT('',(9.138560025431,-1.611698377807,1.182962690499));
#243=CARTESIAN_POINT('',(9.18914257656,-1.489581296851,1.182962690499));
#244=CARTESIAN_POINT('',(9.239788661802,-1.367310830979,1.182962690499));
#245=CARTESIAN_POINT('',(9.290498281157,-1.244886980191,1.182962690499));
#246=CARTESIAN_POINT('',(9.341271434624,-1.122309744486,1.182962690499));
#247=ADVANCED_FACE('',(#248),#274,.T.);
#248=FACE_BOUND('',#249,.T.);
#249=EDGE_LOOP('',(#250,#259,#266,#267));
#250=ORIENTED_EDGE('',*,*,#251,.T.);
#251=EDGE_CURVE('',#252,#254,#256,.T.);
#252=VERTEX_POINT('',#253);
#253=CARTESIAN_POINT('',(8.551410937949,2.506576481991,-2.775557561563E-17));
#254=VERTEX_POINT('',#255);
#255=CARTESIAN_POINT('',(8.551410937949,-2.506576481991,-2.775557561563E-17));
#256=CIRCLE('',#257,6.55);
#257=AXIS2_PLACEMENT_3D('',#258,#35,#36);
#258=CARTESIAN_POINT('',(2.5,0.,-2.775557561563E-17));
#259=ORIENTED_EDGE('',*,*,#260,.T.);
#260=EDGE_CURVE('',#254,#30,#261,.T.);
#261=CIRCLE('',#262,0.2);
#262=AXIS2_PLACEMENT_3D('',#263,#264,#265);
#263=CARTESIAN_POINT('',(8.551410937949,-2.506576481991,0.2));
#264=DIRECTION('',(-0.382683432365,-0.923879532511,-1.972152263053E-31));
#265=DIRECTION('',(-4.102849315896E-15,1.699455831017E-15,-1.));
#266=ORIENTED_EDGE('',*,*,#29,.F.);
#267=ORIENTED_EDGE('',*,*,#268,.F.);
#268=EDGE_CURVE('',#252,#22,#269,.T.);
#269=CIRCLE('',#270,0.2);
#270=AXIS2_PLACEMENT_3D('',#271,#272,#273);
#271=CARTESIAN_POINT('',(8.551410937949,2.506576481991,0.2));
#272=DIRECTION('',(0.382683432365,-0.923879532511,0.));
#273=DIRECTION('',(-4.102849315896E-15,-1.699455831017E-15,-1.));
#274=TOROIDAL_SURFACE('',#81,6.55,0.2);
#275=ADVANCED_FACE('',(#276),#286,.T.);
#276=FACE_BOUND('',#277,.T.);
#277=EDGE_LOOP('',(#202,#278,#279));
#278=ORIENTED_EDGE('',*,*,#145,.T.);
#279=ORIENTED_EDGE('',*,*,#280,.T.);
#280=EDGE_CURVE('',#142,#164,#281,.T.);
#281=CIRCLE('',#282,0.485412195974);
#282=AXIS2_PLACEMENT_3D('',#283,#284,#285);
#283=CARTESIAN_POINT('',(8.990253715892,-2.688351112365,1.6));
#284=DIRECTION('',(0.382683432365,0.923879532511,0.));
#285=DIRECTION('',(-0.523404384043,0.216801194476,-0.824041924199));
#286=PLANE('',#287);
#287=AXIS2_PLACEMENT_3D('',#288,#289,#290);
#288=CARTESIAN_POINT('',(5.712263724747,-1.330563200709,3.973845950515));
#289=DIRECTION('',(-0.382683432365,-0.923879532511,-0.));
#290=DIRECTION('',(0.,0.,-1.));
#291=ADVANCED_FACE('',(#292),#348,.F.);
#292=FACE_BOUND('',#293,.T.);
#293=EDGE_LOOP('',(#294,#318,#325,#329,#331,#332,#333));
#294=ORIENTED_EDGE('',*,*,#295,.T.);
#295=EDGE_CURVE('',#296,#298,#300,.T.);
#296=VERTEX_POINT('',#297);
#297=CARTESIAN_POINT('',(9.18503012623,-0.25,1.249));
#298=VERTEX_POINT('',#299);
#299=CARTESIAN_POINT('',(9.245368781616,-0.25,2.));
#300=B_SPLINE_CURVE_WITH_KNOTS('',5,(#301,#302,#303,#304,#305,#306,#307,#308,#309,#310,#311,#312,#313,#314,#315,#316,#317,#299),.UNSPECIFIED.,.F.,.F.,(6,4,4,4,6),(0.,0.189007909492,0.50174983486,0.811626030186,1.),.UNSPECIFIED.);
#301=CARTESIAN_POINT('',(9.245368781616,-0.25,1.2));
#302=CARTESIAN_POINT('',(9.216061697294,-0.25,1.220134796373));
#303=CARTESIAN_POINT('',(9.188597815992,-0.25,1.242950419868));
#304=CARTESIAN_POINT('',(9.163305509402,-0.25,1.268221595119));
#305=CARTESIAN_POINT('',(9.140469556506,-0.25,1.295664097778));
#306=CARTESIAN_POINT('',(9.08696840603,-0.25,1.373407668509));
#307=CARTESIAN_POINT('',(9.060961293249,-0.25,1.426917013608));
#308=CARTESIAN_POINT('',(9.043325001905,-0.25,1.483985797768));
#309=CARTESIAN_POINT('',(9.034610751278,-0.25,1.542833111606));
#310=CARTESIAN_POINT('',(9.03500793878,-0.25,1.659918857581));
#311=CARTESIAN_POINT('',(9.043956794844,-0.25,1.718167190012));
#312=CARTESIAN_POINT('',(9.061652846646,-0.25,1.774626572376));
#313=CARTESIAN_POINT('',(9.08755329611,-0.25,1.827567875901));
#314=CARTESIAN_POINT('',(9.140776093949,-0.25,1.904703929287));
#315=CARTESIAN_POINT('',(9.163560078984,-0.25,1.932032606411));
#316=CARTESIAN_POINT('',(9.188782069412,-0.25,1.957202600932));
#317=CARTESIAN_POINT('',(9.2161599942,-0.25,1.979932736383));
#318=ORIENTED_EDGE('',*,*,#319,.F.);
#319=EDGE_CURVE('',#320,#298,#322,.T.);
#320=VERTEX_POINT('',#321);
#321=CARTESIAN_POINT('',(8.736186844451,-2.583113168464,2.));
#322=CIRCLE('',#323,6.75);
#323=AXIS2_PLACEMENT_3D('',#324,#90,#91);
#324=CARTESIAN_POINT('',(2.5,0.,2.));
#325=ORIENTED_EDGE('',*,*,#326,.F.);
#326=EDGE_CURVE('',#327,#320,#281,.T.);
#327=VERTEX_POINT('',#328);
#328=CARTESIAN_POINT('',(8.661934551612,-2.552356861733,1.930661594627));
#329=ORIENTED_EDGE('',*,*,#330,.F.);
#330=EDGE_CURVE('',#164,#327,#281,.T.);
#331=ORIENTED_EDGE('',*,*,#280,.F.);
#332=ORIENTED_EDGE('',*,*,#141,.T.);
#333=ORIENTED_EDGE('',*,*,#334,.T.);
#334=EDGE_CURVE('',#128,#296,#335,.T.);
#335=B_SPLINE_CURVE_WITH_KNOTS('',4,(#129,#336,#337,#338,#339,#340,#341,#342,#343,#344,#345,#346,#347,#297),.UNSPECIFIED.,.F.,.F.,(5,3,3,3,5),(0.,0.631445559611,0.816523780828,0.903574639717,1.),.UNSPECIFIED.);
#336=CARTESIAN_POINT('',(9.234936186386,-0.246587095355,1.207254097127));
#337=CARTESIAN_POINT('',(9.224787040747,-0.247791160069,1.214742921226));
#338=CARTESIAN_POINT('',(9.215085709925,-0.248703890801,1.222432015627));
#339=CARTESIAN_POINT('',(9.203107933139,-0.249469489182,1.232591289652));
#340=CARTESIAN_POINT('',(9.200430648415,-0.249615470569,1.234908426618));
#341=CARTESIAN_POINT('',(9.197790793817,-0.249733151226,1.237239101192));
#342=CARTESIAN_POINT('',(9.193964006666,-0.249863560735,1.240684669836));
#343=CARTESIAN_POINT('',(9.192745081957,-0.249898967042,1.241792388182));
#344=CARTESIAN_POINT('',(9.191531419534,-0.249927921543,1.242905594634));
#345=CARTESIAN_POINT('',(9.188984576934,-0.249975046444,1.24526338364));
#346=CARTESIAN_POINT('',(9.187656339199,-0.249991651627,1.246505741162));
#347=CARTESIAN_POINT('',(9.186338117484,-0.249999999668,1.24775139975));
#348=TOROIDAL_SURFACE('',#349,7.025,0.485412195974);
#349=AXIS2_PLACEMENT_3D('',#350,#351,#91);
#350=CARTESIAN_POINT('',(2.5,0.,1.6));
#351=DIRECTION('',(-0.,0.,-1.));
#352=ADVANCED_FACE('',(#353),#146,.T.);
#353=FACE_BOUND('',#354,.T.);
#354=EDGE_LOOP('',(#355,#360,#361,#362));
#355=ORIENTED_EDGE('',*,*,#356,.F.);
#356=EDGE_CURVE('',#128,#99,#357,.T.);
#357=CIRCLE('',#358,6.75);
#358=AXIS2_PLACEMENT_3D('',#103,#90,#359);
#359=DIRECTION('',(0.99934036667,-3.631572034292E-02,0.));
#360=ORIENTED_EDGE('',*,*,#127,.T.);
#361=ORIENTED_EDGE('',*,*,#119,.T.);
#362=ORIENTED_EDGE('',*,*,#105,.F.);
#363=ADVANCED_FACE('',(#364),#348,.F.);
#364=FACE_BOUND('',#365,.T.);
#365=EDGE_LOOP('',(#366,#375,#376,#383,#390,#394,#398));
#366=ORIENTED_EDGE('',*,*,#367,.T.);
#367=EDGE_CURVE('',#368,#99,#370,.T.);
#368=VERTEX_POINT('',#369);
#369=CARTESIAN_POINT('',(9.18503012623,0.25,1.249));
#370=B_SPLINE_CURVE_WITH_KNOTS('',5,(#369,#371,#372,#373,#374,#100),.UNSPECIFIED.,.F.,.F.,(6,6),(0.,1.),.PIECEWISE_BEZIER_KNOTS.);
#371=CARTESIAN_POINT('',(9.195813032839,0.25,1.238706696739));
#372=CARTESIAN_POINT('',(9.207241290619,0.249468100778,1.228607058426));
#373=CARTESIAN_POINT('',(9.219328995352,0.248444403072,1.218753962142));
#374=CARTESIAN_POINT('',(9.232089587625,0.246977679352,1.209200091116));
#375=ORIENTED_EDGE('',*,*,#98,.T.);
#376=ORIENTED_EDGE('',*,*,#377,.T.);
#377=EDGE_CURVE('',#95,#153,#378,.T.);
#378=CIRCLE('',#379,0.485412195974);
#379=AXIS2_PLACEMENT_3D('',#380,#381,#382);
#380=CARTESIAN_POINT('',(8.990253715892,2.688351112365,1.6));
#381=DIRECTION('',(-0.382683432365,0.923879532511,5.551115123126E-17));
#382=DIRECTION('',(-0.523404384043,-0.216801194476,-0.824041924199));
#383=ORIENTED_EDGE('',*,*,#384,.T.);
#384=EDGE_CURVE('',#153,#385,#387,.T.);
#385=VERTEX_POINT('',#386);
#386=CARTESIAN_POINT('',(8.661934551612,2.552356861733,1.930661594627));
#387=CIRCLE('',#388,0.485412195974);
#388=AXIS2_PLACEMENT_3D('',#380,#389,#382);
#389=DIRECTION('',(-0.382683432365,0.923879532511,0.));
#390=ORIENTED_EDGE('',*,*,#391,.T.);
#391=EDGE_CURVE('',#385,#392,#378,.T.);
#392=VERTEX_POINT('',#393);
#393=CARTESIAN_POINT('',(8.736186844451,2.583113168464,2.));
#394=ORIENTED_EDGE('',*,*,#395,.F.);
#395=EDGE_CURVE('',#396,#392,#322,.T.);
#396=VERTEX_POINT('',#397);
#397=CARTESIAN_POINT('',(9.245368781616,0.25,2.));
#398=ORIENTED_EDGE('',*,*,#399,.F.);
#399=EDGE_CURVE('',#368,#396,#400,.T.);
#400=B_SPLINE_CURVE_WITH_KNOTS('',5,(#401,#402,#403,#404,#405,#406,#407,#408,#409,#410,#411,#412,#413,#414,#415,#416,#417,#397),.UNSPECIFIED.,.F.,.F.,(6,4,4,4,6),(0.,0.189007909492,0.501749834844,0.811626030164,1.),.UNSPECIFIED.);
#401=CARTESIAN_POINT('',(9.245368781616,0.25,1.2));
#402=CARTESIAN_POINT('',(9.216061697294,0.25,1.220134796373));
#403=CARTESIAN_POINT('',(9.188597815992,0.25,1.242950419868));
#404=CARTESIAN_POINT('',(9.163305509402,0.25,1.268221595119));
#405=CARTESIAN_POINT('',(9.140469556506,0.25,1.295664097778));
#406=CARTESIAN_POINT('',(9.086968406032,0.25,1.373407668507));
#407=CARTESIAN_POINT('',(9.060961293252,0.25,1.426917013603));
#408=CARTESIAN_POINT('',(9.043325001908,0.25,1.48398579776));
#409=CARTESIAN_POINT('',(9.03461075128,0.25,1.542833111594));
#410=CARTESIAN_POINT('',(9.035007938778,0.25,1.659918857565));
#411=CARTESIAN_POINT('',(9.04395679484,0.25,1.718167189996));
#412=CARTESIAN_POINT('',(9.061652846639,0.25,1.774626572359));
#413=CARTESIAN_POINT('',(9.087553296101,0.25,1.827567875884));
#414=CARTESIAN_POINT('',(9.140776093938,0.25,1.904703929275));
#415=CARTESIAN_POINT('',(9.163560078975,0.25,1.932032606403));
#416=CARTESIAN_POINT('',(9.188782069406,0.25,1.957202600927));
#417=CARTESIAN_POINT('',(9.216159994197,0.25,1.979932736381));
#418=ADVANCED_FACE('',(#419),#422,.F.);
#419=FACE_BOUND('',#420,.F.);
#420=EDGE_LOOP('',(#421,#93,#376));
#421=ORIENTED_EDGE('',*,*,#152,.F.);
#422=PLANE('',#423);
#423=AXIS2_PLACEMENT_3D('',#424,#272,#290);
#424=CARTESIAN_POINT('',(5.712263724747,1.330563200709,3.973845950515));
#425=ADVANCED_FACE('',(#426),#435,.T.);
#426=FACE_BOUND('',#427,.T.);
#427=EDGE_LOOP('',(#428,#432,#433,#434));
#428=ORIENTED_EDGE('',*,*,#429,.T.);
#429=EDGE_CURVE('',#254,#252,#430,.T.);
#430=CIRCLE('',#431,6.55);
#431=AXIS2_PLACEMENT_3D('',#258,#90,#91);
#432=ORIENTED_EDGE('',*,*,#268,.T.);
#433=ORIENTED_EDGE('',*,*,#87,.F.);
#434=ORIENTED_EDGE('',*,*,#260,.F.);
#435=TOROIDAL_SURFACE('',#147,6.55,0.2);
#436=ADVANCED_FACE('',(#437),#479,.F.);
#437=FACE_BOUND('',#438,.T.);
#438=EDGE_LOOP('',(#439,#162,#440,#441));
#439=ORIENTED_EDGE('',*,*,#384,.F.);
#440=ORIENTED_EDGE('',*,*,#330,.T.);
#441=ORIENTED_EDGE('',*,*,#442,.F.);
#442=EDGE_CURVE('',#385,#327,#443,.T.);
#443=B_SPLINE_CURVE_WITH_KNOTS('',12,(#444,#445,#446,#447,#448,#449,#450,#451,#452,#453,#454,#455,#456,#457,#458,#459,#460,#461,#462,#463,#464,#465,#466,#467,#468,#469,#470,#471,#472,#473,#474,#475,#476,#477,#478),.UNSPECIFIED.,.F.,.F.,(13,11,11,13),(-1.581162232275,9.755505997819E-16,37.11006322053,38.691225452805),.UNSPECIFIED.);
#444=CARTESIAN_POINT('',(9.267019141784,1.091553437754,1.930661594627));
#445=CARTESIAN_POINT('',(9.215649769817,1.21557007225,1.930661594627));
#446=CARTESIAN_POINT('',(9.164452335325,1.339171612958,1.930661594627));
#447=CARTESIAN_POINT('',(9.11342683831,1.462358059879,1.930661594627));
#448=CARTESIAN_POINT('',(9.062573278771,1.585129413012,1.930661594627));
#449=CARTESIAN_POINT('',(9.011891656709,1.707485672358,1.930661594627));
#450=CARTESIAN_POINT('',(8.961381972123,1.829426837917,1.930661594627));
#451=CARTESIAN_POINT('',(8.911044225013,1.950952909688,1.930661594627));
#452=CARTESIAN_POINT('',(8.86087841538,2.072063887672,1.930661594627));
#453=CARTESIAN_POINT('',(8.810884543223,2.192759771868,1.930661594627));
#454=CARTESIAN_POINT('',(8.761062608543,2.313040562277,1.930661594627));
#455=CARTESIAN_POINT('',(8.711412611339,2.432906258899,1.930661594627));
#456=CARTESIAN_POINT('',(7.500678681063,5.355876533796,1.930661594627));
#457=CARTESIAN_POINT('',(4.929541305628,7.625950961615,1.930661601092));
#458=CARTESIAN_POINT('',(1.217875704824,8.524725660688,1.930661509316));
#459=CARTESIAN_POINT('',(-2.760435048091,7.355243887428,1.930661877441));
#460=CARTESIAN_POINT('',(-5.725328996887,4.436282423124,1.930661064554));
#461=CARTESIAN_POINT('',(-7.208826392677,-1.726618847897E-12,1.930662240195));
#462=CARTESIAN_POINT('',(-5.725328996887,-4.436282423122,1.930661064555));
#463=CARTESIAN_POINT('',(-2.760435048092,-7.355243887428,1.93066187744));
#464=CARTESIAN_POINT('',(1.217875704824,-8.524725660688,1.930661509317));
#465=CARTESIAN_POINT('',(4.929541305628,-7.625950961614,1.930661601092));
#466=CARTESIAN_POINT('',(7.500678681063,-5.355876533797,1.930661594627));
#467=CARTESIAN_POINT('',(8.711412611339,-2.432906258899,1.930661594627));
#468=CARTESIAN_POINT('',(8.761062608543,-2.313040562277,1.930661594627));
#469=CARTESIAN_POINT('',(8.810884543223,-2.192759771868,1.930661594627));
#470=CARTESIAN_POINT('',(8.86087841538,-2.072063887672,1.930661594627));
#471=CARTESIAN_POINT('',(8.911044225013,-1.950952909688,1.930661594627));
#472=CARTESIAN_POINT('',(8.961381972123,-1.829426837917,1.930661594627));
#473=CARTESIAN_POINT('',(9.011891656709,-1.707485672358,1.930661594627));
#474=CARTESIAN_POINT('',(9.062573278771,-1.585129413012,1.930661594627));
#475=CARTESIAN_POINT('',(9.11342683831,-1.462358059879,1.930661594627));
#476=CARTESIAN_POINT('',(9.164452335325,-1.339171612958,1.930661594627));
#477=CARTESIAN_POINT('',(9.215649769817,-1.21557007225,1.930661594627));
#478=CARTESIAN_POINT('',(9.267019141785,-1.091553437754,1.930661594627));
#479=TOROIDAL_SURFACE('',#480,7.025,0.485412195974);
#480=AXIS2_PLACEMENT_3D('',#350,#481,#36);
#481=DIRECTION('',(0.,-0.,-1.));
#482=ADVANCED_FACE('',(#483),#503,.F.);
#483=FACE_BOUND('',#484,.T.);
#484=EDGE_LOOP('',(#485,#494,#498,#499));
#485=ORIENTED_EDGE('',*,*,#486,.T.);
#486=EDGE_CURVE('',#487,#489,#491,.T.);
#487=VERTEX_POINT('',#488);
#488=CARTESIAN_POINT('',(6.865330791116,1.808179217925,0.));
#489=VERTEX_POINT('',#490);
#490=CARTESIAN_POINT('',(6.865330791116,-1.808179217925,0.));
#491=CIRCLE('',#492,4.725);
#492=AXIS2_PLACEMENT_3D('',#493,#35,#36);
#493=CARTESIAN_POINT('',(2.5,0.,0.));
#494=ORIENTED_EDGE('',*,*,#495,.T.);
#495=EDGE_CURVE('',#489,#254,#496,.T.);
#496=LINE('',#490,#497);
#497=VECTOR('',#91,1.);
#498=ORIENTED_EDGE('',*,*,#251,.F.);
#499=ORIENTED_EDGE('',*,*,#500,.F.);
#500=EDGE_CURVE('',#487,#252,#501,.T.);
#501=LINE('',#488,#502);
#502=VECTOR('',#36,1.);
#503=PLANE('',#504);
#504=AXIS2_PLACEMENT_3D('',#493,#13,#505);
#505=DIRECTION('',(0.923879532511,0.382683432365,-0.));
#506=ADVANCED_FACE('',(#507),#286,.T.);
#507=FACE_BOUND('',#508,.T.);
#508=EDGE_LOOP('',(#509,#520,#521));
#509=ORIENTED_EDGE('',*,*,#510,.F.);
#510=EDGE_CURVE('',#327,#511,#513,.T.);
#511=VERTEX_POINT('',#512);
#512=CARTESIAN_POINT('',(8.736186844451,-2.583113168464,2.135020857149));
#513=B_SPLINE_CURVE_WITH_KNOTS('',7,(#328,#514,#515,#516,#517,#518,#519,#512),.UNSPECIFIED.,.F.,.F.,(8,8),(0.,1.),.PIECEWISE_BEZIER_KNOTS.);
#514=CARTESIAN_POINT('',(8.681677572801,-2.560534688872,1.953628125407));
#515=CARTESIAN_POINT('',(8.699288260174,-2.567829274425,1.979733057641));
#516=CARTESIAN_POINT('',(8.714043655796,-2.573941159409,2.008598603624));
#517=CARTESIAN_POINT('',(8.725286676459,-2.57859817105,2.039541963395));
#518=CARTESIAN_POINT('',(8.732650628006,-2.581648419653,2.071553910914));
#519=CARTESIAN_POINT('',(8.736186844451,-2.583113168464,2.103650086064));
#520=ORIENTED_EDGE('',*,*,#326,.T.);
#521=ORIENTED_EDGE('',*,*,#522,.T.);
#522=EDGE_CURVE('',#320,#511,#523,.T.);
#523=LINE('',#321,#27);
#524=ADVANCED_FACE('',(#525,#588),#662,.T.);
#525=FACE_BOUND('',#526,.T.);
#526=EDGE_LOOP('',(#527,#528,#529,#534,#547,#553,#566,#569,#570,#575,#579,#586));
#527=ORIENTED_EDGE('',*,*,#522,.F.);
#528=ORIENTED_EDGE('',*,*,#319,.T.);
#529=ORIENTED_EDGE('',*,*,#530,.T.);
#530=EDGE_CURVE('',#298,#531,#533,.T.);
#531=VERTEX_POINT('',#532);
#532=CARTESIAN_POINT('',(9.245368781616,-0.25,2.751));
#533=LINE('',#299,#27);
#534=ORIENTED_EDGE('',*,*,#535,.T.);
#535=EDGE_CURVE('',#531,#536,#538,.T.);
#536=VERTEX_POINT('',#537);
#537=CARTESIAN_POINT('',(9.25,-1.E-03,3.));
#538=B_SPLINE_CURVE_WITH_KNOTS('',8,(#532,#539,#540,#541,#542,#543,#544,#545,#546),.UNSPECIFIED.,.F.,.F.,(9,9),(0.,1.),.PIECEWISE_BEZIER_KNOTS.);
#539=CARTESIAN_POINT('',(9.245368781616,-0.25,2.798817818684));
#540=CARTESIAN_POINT('',(9.245757741171,-0.239505506317,2.847360170177));
#541=CARTESIAN_POINT('',(9.246556308842,-0.217958339178,2.893333579755));
#542=CARTESIAN_POINT('',(9.247635680672,-0.186364031521,2.933718813574));
#543=CARTESIAN_POINT('',(9.248727502813,-0.146377046713,2.966091023384));
#544=CARTESIAN_POINT('',(9.249563507005,-0.100336862462,2.988568127693));
#545=CARTESIAN_POINT('',(9.249992532555,-5.090525398909E-02,3.));
#546=CARTESIAN_POINT('',(9.249999925926,-9.999999999986E-04,3.));
#547=ORIENTED_EDGE('',*,*,#548,.T.);
#548=EDGE_CURVE('',#536,#549,#551,.T.);
#549=VERTEX_POINT('',#550);
#550=CARTESIAN_POINT('',(9.25,1.E-03,3.));
#551=LINE('',#552,#124);
#552=CARTESIAN_POINT('',(9.25,-0.25,3.));
#553=ORIENTED_EDGE('',*,*,#554,.F.);
#554=EDGE_CURVE('',#555,#549,#557,.T.);
#555=VERTEX_POINT('',#556);
#556=CARTESIAN_POINT('',(9.245368781616,0.25,2.751));
#557=B_SPLINE_CURVE_WITH_KNOTS('',8,(#556,#558,#559,#560,#561,#562,#563,#564,#565),.UNSPECIFIED.,.F.,.F.,(9,9),(0.,1.),.PIECEWISE_BEZIER_KNOTS.);
#558=CARTESIAN_POINT('',(9.245368781616,0.25,2.798875224057));
#559=CARTESIAN_POINT('',(9.245758675646,0.239480257258,2.847419630918));
#560=CARTESIAN_POINT('',(9.246557559485,0.217924664479,2.893365015003));
#561=CARTESIAN_POINT('',(9.247635978946,0.186344074482,2.933717790044));
#562=CARTESIAN_POINT('',(9.248726768395,0.146385661108,2.966071279017));
#563=CARTESIAN_POINT('',(9.249562869278,0.100372959008,2.988550946957));
#564=CARTESIAN_POINT('',(9.249992527034,5.094252261185E-02,3.));
#565=CARTESIAN_POINT('',(9.249999925926,1.000000000001E-03,3.));
#566=ORIENTED_EDGE('',*,*,#567,.F.);
#567=EDGE_CURVE('',#396,#555,#568,.T.);
#568=LINE('',#397,#27);
#569=ORIENTED_EDGE('',*,*,#395,.T.);
#570=ORIENTED_EDGE('',*,*,#571,.T.);
#571=EDGE_CURVE('',#392,#572,#574,.T.);
#572=VERTEX_POINT('',#573);
#573=CARTESIAN_POINT('',(8.736186844451,2.583113168464,2.135020857149));
#574=LINE('',#393,#27);
#575=ORIENTED_EDGE('',*,*,#576,.T.);
#576=EDGE_CURVE('',#572,#577,#574,.T.);
#577=VERTEX_POINT('',#578);
#578=CARTESIAN_POINT('',(8.736186844451,2.583113168464,7.8));
#579=ORIENTED_EDGE('',*,*,#580,.F.);
#580=EDGE_CURVE('',#581,#577,#583,.T.);
#581=VERTEX_POINT('',#582);
#582=CARTESIAN_POINT('',(8.736186844451,-2.583113168464,7.8));
#583=CIRCLE('',#584,6.75);
#584=AXIS2_PLACEMENT_3D('',#585,#90,#91);
#585=CARTESIAN_POINT('',(2.5,0.,7.8));
#586=ORIENTED_EDGE('',*,*,#587,.F.);
#587=EDGE_CURVE('',#511,#581,#523,.T.);
#588=FACE_BOUND('',#589,.T.);
#589=EDGE_LOOP('',(#590,#605,#609,#622,#628,#641,#645,#658));
#590=ORIENTED_EDGE('',*,*,#591,.F.);
#591=EDGE_CURVE('',#592,#594,#596,.T.);
#592=VERTEX_POINT('',#593);
#593=CARTESIAN_POINT('',(9.245368781616,-0.25,5.249));
#594=VERTEX_POINT('',#595);
#595=CARTESIAN_POINT('',(9.25,-1.E-03,5.));
#596=B_SPLINE_CURVE_WITH_KNOTS('',8,(#593,#597,#598,#599,#600,#601,#602,#603,#604),.UNSPECIFIED.,.F.,.F.,(9,9),(0.,1.),.PIECEWISE_BEZIER_KNOTS.);
#597=CARTESIAN_POINT('',(9.245368781616,-0.25,5.201182181316));
#598=CARTESIAN_POINT('',(9.245757741171,-0.239505506317,5.152639829823));
#599=CARTESIAN_POINT('',(9.246556308842,-0.217958339178,5.106666420245));
#600=CARTESIAN_POINT('',(9.247635680672,-0.186364031521,5.066281186427));
#601=CARTESIAN_POINT('',(9.248727502813,-0.146377046713,5.033908976616));
#602=CARTESIAN_POINT('',(9.249563507005,-0.100336862461,5.011431872307));
#603=CARTESIAN_POINT('',(9.249992532555,-5.090525398917E-02,5.));
#604=CARTESIAN_POINT('',(9.249999925926,-9.999999999986E-04,5.));
#605=ORIENTED_EDGE('',*,*,#606,.T.);
#606=EDGE_CURVE('',#592,#607,#533,.T.);
#607=VERTEX_POINT('',#608);
#608=CARTESIAN_POINT('',(9.245368781616,-0.25,6.751));
#609=ORIENTED_EDGE('',*,*,#610,.T.);
#610=EDGE_CURVE('',#607,#611,#613,.T.);
#611=VERTEX_POINT('',#612);
#612=CARTESIAN_POINT('',(9.25,-1.E-03,7.));
#613=B_SPLINE_CURVE_WITH_KNOTS('',8,(#608,#614,#615,#616,#617,#618,#619,#620,#621),.UNSPECIFIED.,.F.,.F.,(9,9),(0.,1.),.PIECEWISE_BEZIER_KNOTS.);
#614=CARTESIAN_POINT('',(9.245368781616,-0.25,6.798817818684));
#615=CARTESIAN_POINT('',(9.245757741171,-0.239505506317,6.847360170177));
#616=CARTESIAN_POINT('',(9.246556308842,-0.217958339178,6.893333579756));
#617=CARTESIAN_POINT('',(9.247635680672,-0.186364031521,6.933718813572));
#618=CARTESIAN_POINT('',(9.248727502813,-0.146377046713,6.966091023385));
#619=CARTESIAN_POINT('',(9.249563507005,-0.100336862462,6.988568127693));
#620=CARTESIAN_POINT('',(9.249992532555,-5.090525398921E-02,7.));
#621=CARTESIAN_POINT('',(9.249999925926,-9.999999999986E-04,7.));
#622=ORIENTED_EDGE('',*,*,#623,.T.);
#623=EDGE_CURVE('',#611,#624,#626,.T.);
#624=VERTEX_POINT('',#625);
#625=CARTESIAN_POINT('',(9.25,1.E-03,7.));
#626=LINE('',#627,#124);
#627=CARTESIAN_POINT('',(9.25,-0.25,7.));
#628=ORIENTED_EDGE('',*,*,#629,.F.);
#629=EDGE_CURVE('',#630,#624,#632,.T.);
#630=VERTEX_POINT('',#631);
#631=CARTESIAN_POINT('',(9.245368781616,0.25,6.751));
#632=B_SPLINE_CURVE_WITH_KNOTS('',8,(#631,#633,#634,#635,#636,#637,#638,#639,#640),.UNSPECIFIED.,.F.,.F.,(9,9),(0.,1.),.PIECEWISE_BEZIER_KNOTS.);
#633=CARTESIAN_POINT('',(9.245368781616,0.25,6.798875224057));
#634=CARTESIAN_POINT('',(9.245758675646,0.239480257258,6.847419630919));
#635=CARTESIAN_POINT('',(9.246557559485,0.217924664479,6.893365015003));
#636=CARTESIAN_POINT('',(9.247635978946,0.186344074482,6.933717790044));
#637=CARTESIAN_POINT('',(9.248726768395,0.146385661108,6.966071279018));
#638=CARTESIAN_POINT('',(9.249562869278,0.100372959008,6.988550946957));
#639=CARTESIAN_POINT('',(9.249992527034,5.094252261201E-02,7.));
#640=CARTESIAN_POINT('',(9.249999925926,1.000000000001E-03,7.));
#641=ORIENTED_EDGE('',*,*,#642,.F.);
#642=EDGE_CURVE('',#643,#630,#568,.T.);
#643=VERTEX_POINT('',#644);
#644=CARTESIAN_POINT('',(9.245368781616,0.25,5.249));
#645=ORIENTED_EDGE('',*,*,#646,.T.);
#646=EDGE_CURVE('',#643,#647,#649,.T.);
#647=VERTEX_POINT('',#648);
#648=CARTESIAN_POINT('',(9.25,1.E-03,5.));
#649=B_SPLINE_CURVE_WITH_KNOTS('',8,(#644,#650,#651,#652,#653,#654,#655,#656,#657),.UNSPECIFIED.,.F.,.F.,(9,9),(0.,1.),.PIECEWISE_BEZIER_KNOTS.);
#650=CARTESIAN_POINT('',(9.245368781616,0.25,5.201124775943));
#651=CARTESIAN_POINT('',(9.245758675646,0.239480257258,5.152580369082));
#652=CARTESIAN_POINT('',(9.246557559485,0.217924664479,5.106634984997));
#653=CARTESIAN_POINT('',(9.247635978946,0.186344074481,5.066282209956));
#654=CARTESIAN_POINT('',(9.248726768395,0.146385661108,5.033928720982));
#655=CARTESIAN_POINT('',(9.249562869278,0.100372959008,5.011449053043));
#656=CARTESIAN_POINT('',(9.249992527034,5.094252261187E-02,5.));
#657=CARTESIAN_POINT('',(9.249999925926,1.000000000001E-03,5.));
#658=ORIENTED_EDGE('',*,*,#659,.F.);
#659=EDGE_CURVE('',#594,#647,#660,.T.);
#660=LINE('',#661,#124);
#661=CARTESIAN_POINT('',(9.25,-0.25,5.));
#662=CYLINDRICAL_SURFACE('',#663,6.75);
#663=AXIS2_PLACEMENT_3D('',#324,#13,#91);
#664=ADVANCED_FACE('',(#665),#348,.F.);
#665=FACE_BOUND('',#666,.T.);
#666=EDGE_LOOP('',(#667,#668,#669,#670,#671,#676));
#667=ORIENTED_EDGE('',*,*,#334,.F.);
#668=ORIENTED_EDGE('',*,*,#356,.T.);
#669=ORIENTED_EDGE('',*,*,#367,.F.);
#670=ORIENTED_EDGE('',*,*,#399,.T.);
#671=ORIENTED_EDGE('',*,*,#672,.T.);
#672=EDGE_CURVE('',#396,#298,#673,.T.);
#673=CIRCLE('',#674,6.75);
#674=AXIS2_PLACEMENT_3D('',#324,#290,#675);
#675=DIRECTION('',(0.999313893573,3.703703703704E-02,0.));
#676=ORIENTED_EDGE('',*,*,#295,.F.);
#677=ADVANCED_FACE('',(#678),#422,.F.);
#678=FACE_BOUND('',#679,.F.);
#679=EDGE_LOOP('',(#680,#390,#570));
#680=ORIENTED_EDGE('',*,*,#681,.F.);
#681=EDGE_CURVE('',#385,#572,#682,.T.);
#682=B_SPLINE_CURVE_WITH_KNOTS('',7,(#386,#683,#684,#685,#686,#687,#688,#573),.UNSPECIFIED.,.F.,.F.,(8,8),(0.,1.),.PIECEWISE_BEZIER_KNOTS.);
#683=CARTESIAN_POINT('',(8.681677572801,2.560534688872,1.953628125407));
#684=CARTESIAN_POINT('',(8.699288260174,2.567829274424,1.979733057641));
#685=CARTESIAN_POINT('',(8.714043655796,2.573941159409,2.008598603624));
#686=CARTESIAN_POINT('',(8.725286676459,2.57859817105,2.039541963395));
#687=CARTESIAN_POINT('',(8.732650628006,2.581648419653,2.071553910914));
#688=CARTESIAN_POINT('',(8.736186844451,2.583113168464,2.103650086064));
#689=ADVANCED_FACE('',(#690),#699,.F.);
#690=FACE_BOUND('',#691,.T.);
#691=EDGE_LOOP('',(#692,#696,#697,#698));
#692=ORIENTED_EDGE('',*,*,#693,.T.);
#693=EDGE_CURVE('',#489,#487,#694,.T.);
#694=CIRCLE('',#695,4.725);
#695=AXIS2_PLACEMENT_3D('',#493,#90,#91);
#696=ORIENTED_EDGE('',*,*,#500,.T.);
#697=ORIENTED_EDGE('',*,*,#429,.F.);
#698=ORIENTED_EDGE('',*,*,#495,.F.);
#699=PLANE('',#700);
#700=AXIS2_PLACEMENT_3D('',#493,#13,#701);
#701=DIRECTION('',(0.923879532511,-0.382683432365,-0.));
#702=ADVANCED_FACE('',(#703),#744,.F.);
#703=FACE_BOUND('',#704,.F.);
#704=EDGE_LOOP('',(#705,#706,#509,#441));
#705=ORIENTED_EDGE('',*,*,#681,.T.);
#706=ORIENTED_EDGE('',*,*,#707,.T.);
#707=EDGE_CURVE('',#572,#511,#708,.T.);
#708=B_SPLINE_CURVE_WITH_KNOTS('',12,(#709,#710,#711,#712,#713,#714,#715,#716,#717,#718,#719,#720,#721,#722,#723,#724,#725,#726,#727,#728,#729,#730,#731,#732,#733,#734,#735,#736,#737,#738,#739,#740,#741,#742,#743),.UNSPECIFIED.,.F.,.F.,(13,11,11,13),(-1.581162232275,9.755505997819E-16,37.11006322053,38.691225452805),.UNSPECIFIED.);
#709=CARTESIAN_POINT('',(9.341271434624,1.122309744486,2.135020857149));
#710=CARTESIAN_POINT('',(9.290498281157,1.244886980191,2.135020857149));
#711=CARTESIAN_POINT('',(9.239788661802,1.367310830979,2.135020857149));
#712=CARTESIAN_POINT('',(9.18914257656,1.489581296852,2.135020857149));
#713=CARTESIAN_POINT('',(9.138560025431,1.611698377807,2.135020857149));
#714=CARTESIAN_POINT('',(9.088041008414,1.733662073847,2.135020857149));
#715=CARTESIAN_POINT('',(9.03758552551,1.85547238497,2.135020857149));
#716=CARTESIAN_POINT('',(8.987193576719,1.977129311177,2.135020857149));
#717=CARTESIAN_POINT('',(8.93686516204,2.098632852467,2.135020857149));
#718=CARTESIAN_POINT('',(8.886600281474,2.219983008841,2.135020857149));
#719=CARTESIAN_POINT('',(8.83639893502,2.341179780298,2.135020857149));
#720=CARTESIAN_POINT('',(8.786261122679,2.46222316684,2.135020857149));
#721=CARTESIAN_POINT('',(7.560937655694,5.420415699129,2.135020857149));
#722=CARTESIAN_POINT('',(4.958871958682,7.7176516789,2.135020820239));
#723=CARTESIAN_POINT('',(1.202825417501,8.627742699232,2.135021344278));
#724=CARTESIAN_POINT('',(-2.824798861715,7.443885694152,2.13501924227));
#725=CARTESIAN_POINT('',(-5.823527145819,4.489386012282,2.135023883895));
#726=CARTESIAN_POINT('',(-7.326546564975,1.177591357759E-11,2.135017170923));
#727=CARTESIAN_POINT('',(-5.82352714582,-4.489386012303,2.135023883896));
#728=CARTESIAN_POINT('',(-2.824798861714,-7.443885694136,2.135019242268));
#729=CARTESIAN_POINT('',(1.2028254175,-8.627742699241,2.135021344279));
#730=CARTESIAN_POINT('',(4.958871958682,-7.717651678896,2.135020820238));
#731=CARTESIAN_POINT('',(7.560937655694,-5.420415699131,2.135020857149));
#732=CARTESIAN_POINT('',(8.786261122679,-2.46222316684,2.135020857149));
#733=CARTESIAN_POINT('',(8.83639893502,-2.341179780298,2.135020857149));
#734=CARTESIAN_POINT('',(8.886600281474,-2.219983008841,2.135020857149));
#735=CARTESIAN_POINT('',(8.93686516204,-2.098632852467,2.135020857149));
#736=CARTESIAN_POINT('',(8.987193576719,-1.977129311176,2.135020857149));
#737=CARTESIAN_POINT('',(9.03758552551,-1.85547238497,2.135020857149));
#738=CARTESIAN_POINT('',(9.088041008414,-1.733662073847,2.135020857149));
#739=CARTESIAN_POINT('',(9.138560025431,-1.611698377807,2.135020857149));
#740=CARTESIAN_POINT('',(9.18914257656,-1.489581296851,2.135020857149));
#741=CARTESIAN_POINT('',(9.239788661802,-1.367310830979,2.135020857149));
#742=CARTESIAN_POINT('',(9.290498281157,-1.244886980191,2.135020857149));
#743=CARTESIAN_POINT('',(9.341271434624,-1.122309744486,2.135020857149));
#744=( BOUNDED_SURFACE() B_SPLINE_SURFACE(2,12,((#444,#445,#446,#447,#448,#449,#450,#451,#452,#453,#454,#455,#456,#457,#458,#459,#460,#461,#462,#463,#464,#465,#466,#467,#468,#469,#470,#471,#472,#473,#474,#475,#476,#477,#478),(#745,#746,#747,#748,#749,#750,#751,#752,#753,#754,#755,#756,#757,#758,#759,#760,#761,#762,#763,#764,#765,#766,#767,#768,#769,#770,#771,#772,#773,#774,#775,#776,#777,#778,#779),(#709,#710,#711,#712,#713,#714,#715,#716,#717,#718,#719,#720,#721,#722,#723,#724,#725,#726,#727,#728,#729,#730,#731,#732,#733,#734,#735,#736,#737,#738,#739,#740,#741,#742,#743)),.UNSPECIFIED.,.F.,.F.,.F.) B_SPLINE_SURFACE_WITH_KNOTS((3,3),(13,11,11,13),(0.,37.11006322053),(-1.581162232275,9.755505997819E-16,37.11006322053,38.691225452805),.UNSPECIFIED.) GEOMETRIC_REPRESENTATION_ITEM() RATIONAL_B_SPLINE_SURFACE(((1.,1.,1.,1.,1.,1.,1.,1.,1.,1.,1.,1.,1.,1.,1.,1.,1.,1.,1.,1.,1.,1.,1.,1.,1.,1.,1.,1.,1.,1.,1.,1.,1.,1.,1.),(0.93061798229,0.93061798229,0.93061798229,0.93061798229,0.93061798229,0.93061798229,0.93061798229,0.93061798229,0.93061798229,0.93061798229,0.93061798229,0.93061798229,0.93061798229,0.93061801843,0.930617505331,0.930619563452,0.930615018739,0.930621591549,0.930615018739,0.930619563452,0.930617505331,0.93061801843,0.93061798229,0.93061798229,0.93061798229,0.93061798229,0.93061798229,0.93061798229,0.93061798229,0.93061798229,0.93061798229,0.93061798229,0.93061798229,0.93061798229,0.93061798229),(1.,1.,1.,1.,1.,1.,1.,1.,1.,1.,1.,1.,1.,1.,1.,1.,1.,1.,1.,1.,1.,1.,1.,1.,1.,1.,1.,1.,1.,1.,1.,1.,1.,1.,1.))) REPRESENTATION_ITEM('') SURFACE() );
#745=CARTESIAN_POINT('',(9.341271434624,1.122309744486,2.017037309501));
#746=CARTESIAN_POINT('',(9.290498281157,1.244886980191,2.017037309501));
#747=CARTESIAN_POINT('',(9.239788661802,1.367310830979,2.017037309501));
#748=CARTESIAN_POINT('',(9.18914257656,1.489581296852,2.017037309501));
#749=CARTESIAN_POINT('',(9.138560025431,1.611698377807,2.017037309501));
#750=CARTESIAN_POINT('',(9.088041008414,1.733662073847,2.017037309501));
#751=CARTESIAN_POINT('',(9.03758552551,1.85547238497,2.017037309501));
#752=CARTESIAN_POINT('',(8.987193576719,1.977129311177,2.017037309501));
#753=CARTESIAN_POINT('',(8.93686516204,2.098632852467,2.017037309501));
#754=CARTESIAN_POINT('',(8.886600281474,2.219983008841,2.017037309501));
#755=CARTESIAN_POINT('',(8.83639893502,2.341179780298,2.017037309501));
#756=CARTESIAN_POINT('',(8.786261122679,2.46222316684,2.017037309501));
#757=CARTESIAN_POINT('',(7.560937655695,5.42041569913,2.017037309501));
#758=CARTESIAN_POINT('',(4.958871600454,7.717651283066,2.017037306796));
#759=CARTESIAN_POINT('',(1.202825286045,8.627746456383,2.017037345204));
#760=CARTESIAN_POINT('',(-2.824790624237,7.44387498826,2.017037191142));
#761=CARTESIAN_POINT('',(-5.823552387841,4.489398296425,2.017037531339));
#762=CARTESIAN_POINT('',(-7.326509945383,6.979306022004E-12,2.017037039329));
#763=CARTESIAN_POINT('',(-5.823552387838,-4.489398296437,2.01703753134));
#764=CARTESIAN_POINT('',(-2.82479062424,-7.443874988252,2.017037191141));
#765=CARTESIAN_POINT('',(1.202825286046,-8.627746456387,2.017037345204));
#766=CARTESIAN_POINT('',(4.958871600454,-7.717651283065,2.017037306796));
#767=CARTESIAN_POINT('',(7.560937655694,-5.42041569913,2.017037309501));
#768=CARTESIAN_POINT('',(8.786261122679,-2.46222316684,2.017037309501));
#769=CARTESIAN_POINT('',(8.83639893502,-2.341179780298,2.017037309501));
#770=CARTESIAN_POINT('',(8.886600281474,-2.219983008841,2.017037309501));
#771=CARTESIAN_POINT('',(8.93686516204,-2.098632852467,2.017037309501));
#772=CARTESIAN_POINT('',(8.987193576719,-1.977129311176,2.017037309501));
#773=CARTESIAN_POINT('',(9.03758552551,-1.85547238497,2.017037309501));
#774=CARTESIAN_POINT('',(9.088041008414,-1.733662073847,2.017037309501));
#775=CARTESIAN_POINT('',(9.138560025431,-1.611698377807,2.017037309501));
#776=CARTESIAN_POINT('',(9.18914257656,-1.489581296851,2.017037309501));
#777=CARTESIAN_POINT('',(9.239788661802,-1.367310830979,2.017037309501));
#778=CARTESIAN_POINT('',(9.290498281157,-1.244886980191,2.017037309501));
#779=CARTESIAN_POINT('',(9.341271434624,-1.122309744486,2.017037309501));
#780=ADVANCED_FACE('',(#781),#800,.F.);
#781=FACE_BOUND('',#782,.T.);
#782=EDGE_LOOP('',(#783,#790,#795,#799));
#783=ORIENTED_EDGE('',*,*,#784,.F.);
#784=EDGE_CURVE('',#785,#487,#787,.T.);
#785=VERTEX_POINT('',#786);
#786=CARTESIAN_POINT('',(6.865330791116,1.808179217925,0.2));
#787=LINE('',#788,#789);
#788=CARTESIAN_POINT('',(6.865330791116,1.808179217925,0.3));
#789=VECTOR('',#290,1.);
#790=ORIENTED_EDGE('',*,*,#791,.T.);
#791=EDGE_CURVE('',#785,#792,#794,.T.);
#792=VERTEX_POINT('',#793);
#793=CARTESIAN_POINT('',(6.865330791116,-1.808179217925,0.2));
#794=CIRCLE('',#33,4.725);
#795=ORIENTED_EDGE('',*,*,#796,.T.);
#796=EDGE_CURVE('',#792,#489,#797,.T.);
#797=LINE('',#798,#789);
#798=CARTESIAN_POINT('',(6.865330791116,-1.808179217925,0.3));
#799=ORIENTED_EDGE('',*,*,#486,.F.);
#800=CYLINDRICAL_SURFACE('',#801,4.725);
#801=AXIS2_PLACEMENT_3D('',#802,#481,#36);
#802=CARTESIAN_POINT('',(2.5,0.,0.3));
#803=ADVANCED_FACE('',(#804),#812,.T.);
#804=FACE_BOUND('',#805,.T.);
#805=EDGE_LOOP('',(#806,#706,#807,#808));
#806=ORIENTED_EDGE('',*,*,#576,.F.);
#807=ORIENTED_EDGE('',*,*,#587,.T.);
#808=ORIENTED_EDGE('',*,*,#809,.F.);
#809=EDGE_CURVE('',#577,#581,#810,.T.);
#810=CIRCLE('',#811,6.75);
#811=AXIS2_PLACEMENT_3D('',#585,#35,#36);
#812=CYLINDRICAL_SURFACE('',#813,6.75);
#813=AXIS2_PLACEMENT_3D('',#324,#13,#36);
#814=ADVANCED_FACE('',(#815),#840,.T.);
#815=FACE_BOUND('',#816,.T.);
#816=EDGE_LOOP('',(#817,#818,#826,#833));
#817=ORIENTED_EDGE('',*,*,#580,.T.);
#818=ORIENTED_EDGE('',*,*,#819,.T.);
#819=EDGE_CURVE('',#577,#820,#822,.T.);
#820=VERTEX_POINT('',#821);
#821=CARTESIAN_POINT('',(8.551410937949,2.506576481991,8.));
#822=CIRCLE('',#823,0.2);
#823=AXIS2_PLACEMENT_3D('',#824,#272,#825);
#824=CARTESIAN_POINT('',(8.551410937949,2.506576481991,7.8));
#825=DIRECTION('',(0.923879532511,0.382683432365,-1.33226762955E-14));
#826=ORIENTED_EDGE('',*,*,#827,.F.);
#827=EDGE_CURVE('',#828,#820,#830,.T.);
#828=VERTEX_POINT('',#829);
#829=CARTESIAN_POINT('',(8.551410937949,-2.506576481991,8.));
#830=CIRCLE('',#831,6.55);
#831=AXIS2_PLACEMENT_3D('',#832,#90,#91);
#832=CARTESIAN_POINT('',(2.5,0.,8.));
#833=ORIENTED_EDGE('',*,*,#834,.F.);
#834=EDGE_CURVE('',#581,#828,#835,.T.);
#835=CIRCLE('',#836,0.2);
#836=AXIS2_PLACEMENT_3D('',#837,#838,#839);
#837=CARTESIAN_POINT('',(8.551410937949,-2.506576481991,7.8));
#838=DIRECTION('',(-0.382683432365,-0.923879532511,1.577721810442E-30));
#839=DIRECTION('',(0.923879532511,-0.382683432365,-1.33226762955E-14));
#840=TOROIDAL_SURFACE('',#841,6.55,0.2);
#841=AXIS2_PLACEMENT_3D('',#585,#13,#91);
#842=ADVANCED_FACE('',(#843),#662,.T.);
#843=FACE_BOUND('',#844,.T.);
#844=EDGE_LOOP('',(#845,#846,#847,#848,#849,#850));
#845=ORIENTED_EDGE('',*,*,#530,.F.);
#846=ORIENTED_EDGE('',*,*,#672,.F.);
#847=ORIENTED_EDGE('',*,*,#567,.T.);
#848=ORIENTED_EDGE('',*,*,#554,.T.);
#849=ORIENTED_EDGE('',*,*,#548,.F.);
#850=ORIENTED_EDGE('',*,*,#535,.F.);
#851=ADVANCED_FACE('',(#852),#662,.T.);
#852=FACE_BOUND('',#853,.T.);
#853=EDGE_LOOP('',(#854,#855,#856,#857,#858,#859,#860,#861));
#854=ORIENTED_EDGE('',*,*,#591,.T.);
#855=ORIENTED_EDGE('',*,*,#659,.T.);
#856=ORIENTED_EDGE('',*,*,#646,.F.);
#857=ORIENTED_EDGE('',*,*,#642,.T.);
#858=ORIENTED_EDGE('',*,*,#629,.T.);
#859=ORIENTED_EDGE('',*,*,#623,.F.);
#860=ORIENTED_EDGE('',*,*,#610,.F.);
#861=ORIENTED_EDGE('',*,*,#606,.F.);
#862=ADVANCED_FACE('',(#863),#870,.F.);
#863=FACE_BOUND('',#864,.T.);
#864=EDGE_LOOP('',(#865,#866,#868,#869));
#865=ORIENTED_EDGE('',*,*,#796,.F.);
#866=ORIENTED_EDGE('',*,*,#867,.T.);
#867=EDGE_CURVE('',#792,#785,#794,.T.);
#868=ORIENTED_EDGE('',*,*,#784,.T.);
#869=ORIENTED_EDGE('',*,*,#693,.F.);
#870=CYLINDRICAL_SURFACE('',#871,4.725);
#871=AXIS2_PLACEMENT_3D('',#802,#351,#91);
#872=ADVANCED_FACE('',(#873,#875,#885),#894,.F.);
#873=FACE_BOUND('',#874,.F.);
#874=EDGE_LOOP('',(#790,#866));
#875=FACE_BOUND('',#876,.F.);
#876=EDGE_LOOP('',(#877));
#877=ORIENTED_EDGE('',*,*,#878,.F.);
#878=EDGE_CURVE('',#879,#879,#881,.T.);
#879=VERTEX_POINT('',#880);
#880=CARTESIAN_POINT('',(4.35,-5.327213576291E-16,0.2));
#881=CIRCLE('',#882,0.65);
#882=AXIS2_PLACEMENT_3D('',#883,#13,#884);
#883=CARTESIAN_POINT('',(5.,-6.123233995737E-16,0.2));
#884=DIRECTION('',(-1.,1.224646799147E-16,0.));
#885=FACE_BOUND('',#886,.F.);
#886=EDGE_LOOP('',(#887));
#887=ORIENTED_EDGE('',*,*,#888,.F.);
#888=EDGE_CURVE('',#889,#889,#891,.T.);
#889=VERTEX_POINT('',#890);
#890=CARTESIAN_POINT('',(-0.65,7.960204194458E-17,0.2));
#891=CIRCLE('',#892,0.65);
#892=AXIS2_PLACEMENT_3D('',#893,#13,#884);
#893=CARTESIAN_POINT('',(0.,0.,0.2));
#894=PLANE('',#895);
#895=AXIS2_PLACEMENT_3D('',#896,#13,#36);
#896=CARTESIAN_POINT('',(2.5,2.45801068225E-16,0.2));
#897=ADVANCED_FACE('',(#898),#907,.T.);
#898=FACE_BOUND('',#899,.T.);
#899=EDGE_LOOP('',(#900,#901,#902,#906));
#900=ORIENTED_EDGE('',*,*,#809,.T.);
#901=ORIENTED_EDGE('',*,*,#834,.T.);
#902=ORIENTED_EDGE('',*,*,#903,.F.);
#903=EDGE_CURVE('',#820,#828,#904,.T.);
#904=CIRCLE('',#905,6.55);
#905=AXIS2_PLACEMENT_3D('',#832,#35,#36);
#906=ORIENTED_EDGE('',*,*,#819,.F.);
#907=TOROIDAL_SURFACE('',#908,6.55,0.2);
#908=AXIS2_PLACEMENT_3D('',#585,#13,#36);
#909=ADVANCED_FACE('',(#910),#930,.T.);
#910=FACE_BOUND('',#911,.T.);
#911=EDGE_LOOP('',(#912,#913,#920,#925));
#912=ORIENTED_EDGE('',*,*,#827,.T.);
#913=ORIENTED_EDGE('',*,*,#914,.T.);
#914=EDGE_CURVE('',#820,#915,#917,.T.);
#915=VERTEX_POINT('',#916);
#916=CARTESIAN_POINT('',(6.865330791116,1.808179217925,8.));
#917=LINE('',#821,#918);
#918=VECTOR('',#919,1.);
#919=DIRECTION('',(-0.923879532511,-0.382683432365,0.));
#920=ORIENTED_EDGE('',*,*,#921,.F.);
#921=EDGE_CURVE('',#922,#915,#924,.T.);
#922=VERTEX_POINT('',#923);
#923=CARTESIAN_POINT('',(6.865330791116,-1.808179217925,8.));
#924=CIRCLE('',#831,4.725);
#925=ORIENTED_EDGE('',*,*,#926,.F.);
#926=EDGE_CURVE('',#828,#922,#927,.T.);
#927=LINE('',#829,#928);
#928=VECTOR('',#929,1.);
#929=DIRECTION('',(-0.923879532511,0.382683432365,0.));
#930=PLANE('',#931);
#931=AXIS2_PLACEMENT_3D('',#832,#13,#91);
#932=ADVANCED_FACE('',(#933),#947,.T.);
#933=FACE_BOUND('',#934,.T.);
#934=EDGE_LOOP('',(#877,#935,#941,#946));
#935=ORIENTED_EDGE('',*,*,#936,.T.);
#936=EDGE_CURVE('',#879,#937,#939,.T.);
#937=VERTEX_POINT('',#938);
#938=CARTESIAN_POINT('',(4.35,-5.327213576291E-16,-5.4));
#939=LINE('',#940,#789);
#940=CARTESIAN_POINT('',(4.35,-5.327213576291E-16,0.3));
#941=ORIENTED_EDGE('',*,*,#942,.T.);
#942=EDGE_CURVE('',#937,#937,#943,.T.);
#943=CIRCLE('',#944,0.65);
#944=AXIS2_PLACEMENT_3D('',#945,#13,#884);
#945=CARTESIAN_POINT('',(5.,-6.123233995737E-16,-5.4));
#946=ORIENTED_EDGE('',*,*,#936,.F.);
#947=CYLINDRICAL_SURFACE('',#948,0.65);
#948=AXIS2_PLACEMENT_3D('',#949,#13,#884);
#949=CARTESIAN_POINT('',(5.,-6.123233995737E-16,0.3));
#950=ADVANCED_FACE('',(#951),#965,.T.);
#951=FACE_BOUND('',#952,.T.);
#952=EDGE_LOOP('',(#887,#953,#959,#964));
#953=ORIENTED_EDGE('',*,*,#954,.T.);
#954=EDGE_CURVE('',#889,#955,#957,.T.);
#955=VERTEX_POINT('',#956);
#956=CARTESIAN_POINT('',(-0.65,7.960204194458E-17,-6.));
#957=LINE('',#958,#789);
#958=CARTESIAN_POINT('',(-0.65,7.960204194458E-17,0.3));
#959=ORIENTED_EDGE('',*,*,#960,.T.);
#960=EDGE_CURVE('',#955,#955,#961,.T.);
#961=CIRCLE('',#962,0.65);
#962=AXIS2_PLACEMENT_3D('',#963,#13,#884);
#963=CARTESIAN_POINT('',(0.,0.,-6.));
#964=ORIENTED_EDGE('',*,*,#954,.F.);
#965=CYLINDRICAL_SURFACE('',#966,0.65);
#966=AXIS2_PLACEMENT_3D('',#967,#13,#884);
#967=CARTESIAN_POINT('',(0.,0.,0.3));
#968=ADVANCED_FACE('',(#969),#977,.T.);
#969=FACE_BOUND('',#970,.T.);
#970=EDGE_LOOP('',(#971,#972,#973,#976));
#971=ORIENTED_EDGE('',*,*,#903,.T.);
#972=ORIENTED_EDGE('',*,*,#926,.T.);
#973=ORIENTED_EDGE('',*,*,#974,.F.);
#974=EDGE_CURVE('',#915,#922,#975,.T.);
#975=CIRCLE('',#905,4.725);
#976=ORIENTED_EDGE('',*,*,#914,.F.);
#977=PLANE('',#978);
#978=AXIS2_PLACEMENT_3D('',#832,#13,#36);
#979=ADVANCED_FACE('',(#980),#1027,.F.);
#980=FACE_BOUND('',#981,.T.);
#981=EDGE_LOOP('',(#982,#987,#988,#993,#1001,#1009,#1015,#1019,#1025));
#982=ORIENTED_EDGE('',*,*,#983,.F.);
#983=EDGE_CURVE('',#922,#984,#986,.T.);
#984=VERTEX_POINT('',#985);
#985=CARTESIAN_POINT('',(6.865330791116,-1.808179217925,7.9));
#986=LINE('',#923,#789);
#987=ORIENTED_EDGE('',*,*,#921,.T.);
#988=ORIENTED_EDGE('',*,*,#989,.T.);
#989=EDGE_CURVE('',#915,#990,#992,.T.);
#990=VERTEX_POINT('',#991);
#991=CARTESIAN_POINT('',(6.865330791116,1.808179217925,7.9));
#992=LINE('',#916,#789);
#993=ORIENTED_EDGE('',*,*,#994,.F.);
#994=EDGE_CURVE('',#995,#990,#997,.T.);
#995=VERTEX_POINT('',#996);
#996=CARTESIAN_POINT('',(7.224735442329,4.999999999998E-02,7.9));
#997=CIRCLE('',#998,4.725);
#998=AXIS2_PLACEMENT_3D('',#999,#13,#1000);
#999=CARTESIAN_POINT('',(2.5,0.,7.9));
#1000=DIRECTION('',(1.,0.,0.));
#1001=ORIENTED_EDGE('',*,*,#1002,.T.);
#1002=EDGE_CURVE('',#995,#1003,#1005,.T.);
#1003=VERTEX_POINT('',#1004);
#1004=CARTESIAN_POINT('',(7.224735442329,5.E-02,7.8));
#1005=LINE('',#1006,#1007);
#1006=CARTESIAN_POINT('',(7.224735442329,5.E-02,7.7));
#1007=VECTOR('',#1008,1.);
#1008=DIRECTION('',(-0.,-0.,-1.));
#1009=ORIENTED_EDGE('',*,*,#1010,.T.);
#1010=EDGE_CURVE('',#1003,#1011,#1013,.T.);
#1011=VERTEX_POINT('',#1012);
#1012=CARTESIAN_POINT('',(7.225,0.,7.8));
#1013=CIRCLE('',#1014,4.725);
#1014=AXIS2_PLACEMENT_3D('',#585,#290,#1000);
#1015=ORIENTED_EDGE('',*,*,#1016,.T.);
#1016=EDGE_CURVE('',#1011,#1017,#1013,.T.);
#1017=VERTEX_POINT('',#1018);
#1018=CARTESIAN_POINT('',(7.224735442329,-5.E-02,7.8));
#1019=ORIENTED_EDGE('',*,*,#1020,.F.);
#1020=EDGE_CURVE('',#1021,#1017,#1023,.T.);
#1021=VERTEX_POINT('',#1022);
#1022=CARTESIAN_POINT('',(7.224735442329,-4.999999999998E-02,7.9));
#1023=LINE('',#1024,#1007);
#1024=CARTESIAN_POINT('',(7.224735442329,-5.E-02,7.7));
#1025=ORIENTED_EDGE('',*,*,#1026,.F.);
#1026=EDGE_CURVE('',#984,#1021,#997,.T.);
#1027=CYLINDRICAL_SURFACE('',#1028,4.725);
#1028=AXIS2_PLACEMENT_3D('',#832,#351,#91);
#1029=ADVANCED_FACE('',(#1030),#1032,.F.);
#1030=FACE_BOUND('',#1031,.F.);
#1031=EDGE_LOOP('',(#941));
#1032=PLANE('',#1033);
#1033=AXIS2_PLACEMENT_3D('',#1034,#13,#884);
#1034=CARTESIAN_POINT('',(5.,-6.186605426243E-16,-5.4));
#1035=ADVANCED_FACE('',(#1036),#1038,.F.);
#1036=FACE_BOUND('',#1037,.F.);
#1037=EDGE_LOOP('',(#959));
#1038=PLANE('',#1039);
#1039=AXIS2_PLACEMENT_3D('',#1040,#13,#884);
#1040=CARTESIAN_POINT('',(4.440892098501E-16,-6.337143050672E-18,-6.));
#1041=ADVANCED_FACE('',(#1042),#1109,.F.);
#1042=FACE_BOUND('',#1043,.T.);
#1043=EDGE_LOOP('',(#1044,#1045,#1046,#1047,#1051,#1057,#1061,#1067,#1071,#1077,#1081,#1087,#1091,#1097,#1101,#1107));
#1044=ORIENTED_EDGE('',*,*,#989,.F.);
#1045=ORIENTED_EDGE('',*,*,#974,.T.);
#1046=ORIENTED_EDGE('',*,*,#983,.T.);
#1047=ORIENTED_EDGE('',*,*,#1048,.F.);
#1048=EDGE_CURVE('',#1049,#984,#997,.T.);
#1049=VERTEX_POINT('',#1050);
#1050=CARTESIAN_POINT('',(2.55,-4.724735442329,7.9));
#1051=ORIENTED_EDGE('',*,*,#1052,.T.);
#1052=EDGE_CURVE('',#1049,#1053,#1055,.T.);
#1053=VERTEX_POINT('',#1054);
#1054=CARTESIAN_POINT('',(2.55,-4.724735442329,7.8));
#1055=LINE('',#1056,#1007);
#1056=CARTESIAN_POINT('',(2.55,-4.724735442329,7.7));
#1057=ORIENTED_EDGE('',*,*,#1058,.T.);
#1058=EDGE_CURVE('',#1053,#1059,#1013,.T.);
#1059=VERTEX_POINT('',#1060);
#1060=CARTESIAN_POINT('',(2.45,-4.724735442329,7.8));
#1061=ORIENTED_EDGE('',*,*,#1062,.F.);
#1062=EDGE_CURVE('',#1063,#1059,#1065,.T.);
#1063=VERTEX_POINT('',#1064);
#1064=CARTESIAN_POINT('',(2.45,-4.724735442329,7.9));
#1065=LINE('',#1066,#1007);
#1066=CARTESIAN_POINT('',(2.45,-4.724735442329,7.7));
#1067=ORIENTED_EDGE('',*,*,#1068,.F.);
#1068=EDGE_CURVE('',#1069,#1063,#997,.T.);
#1069=VERTEX_POINT('',#1070);
#1070=CARTESIAN_POINT('',(-2.224735442329,-5.000000000012E-02,7.9));
#1071=ORIENTED_EDGE('',*,*,#1072,.T.);
#1072=EDGE_CURVE('',#1069,#1073,#1075,.T.);
#1073=VERTEX_POINT('',#1074);
#1074=CARTESIAN_POINT('',(-2.224735442329,-5.E-02,7.8));
#1075=LINE('',#1076,#1007);
#1076=CARTESIAN_POINT('',(-2.224735442329,-5.E-02,7.7));
#1077=ORIENTED_EDGE('',*,*,#1078,.T.);
#1078=EDGE_CURVE('',#1073,#1079,#1013,.T.);
#1079=VERTEX_POINT('',#1080);
#1080=CARTESIAN_POINT('',(-2.224735442329,5.E-02,7.8));
#1081=ORIENTED_EDGE('',*,*,#1082,.F.);
#1082=EDGE_CURVE('',#1083,#1079,#1085,.T.);
#1083=VERTEX_POINT('',#1084);
#1084=CARTESIAN_POINT('',(-2.224735442329,5.000000000012E-02,7.9));
#1085=LINE('',#1086,#1007);
#1086=CARTESIAN_POINT('',(-2.224735442329,5.E-02,7.7));
#1087=ORIENTED_EDGE('',*,*,#1088,.F.);
#1088=EDGE_CURVE('',#1089,#1083,#997,.T.);
#1089=VERTEX_POINT('',#1090);
#1090=CARTESIAN_POINT('',(2.45,4.724735442329,7.9));
#1091=ORIENTED_EDGE('',*,*,#1092,.T.);
#1092=EDGE_CURVE('',#1089,#1093,#1095,.T.);
#1093=VERTEX_POINT('',#1094);
#1094=CARTESIAN_POINT('',(2.45,4.724735442329,7.8));
#1095=LINE('',#1096,#1007);
#1096=CARTESIAN_POINT('',(2.45,4.724735442329,7.7));
#1097=ORIENTED_EDGE('',*,*,#1098,.T.);
#1098=EDGE_CURVE('',#1093,#1099,#1013,.T.);
#1099=VERTEX_POINT('',#1100);
#1100=CARTESIAN_POINT('',(2.55,4.724735442329,7.8));
#1101=ORIENTED_EDGE('',*,*,#1102,.F.);
#1102=EDGE_CURVE('',#1103,#1099,#1105,.T.);
#1103=VERTEX_POINT('',#1104);
#1104=CARTESIAN_POINT('',(2.55,4.724735442329,7.9));
#1105=LINE('',#1106,#1007);
#1106=CARTESIAN_POINT('',(2.55,4.724735442329,7.7));
#1107=ORIENTED_EDGE('',*,*,#1108,.F.);
#1108=EDGE_CURVE('',#990,#1103,#997,.T.);
#1109=CYLINDRICAL_SURFACE('',#1110,4.725);
#1110=AXIS2_PLACEMENT_3D('',#832,#481,#36);
#1111=ADVANCED_FACE('',(#1112),#1126,.T.);
#1112=FACE_BOUND('',#1113,.T.);
#1113=EDGE_LOOP('',(#1114,#1115,#1116,#1122));
#1114=ORIENTED_EDGE('',*,*,#1048,.T.);
#1115=ORIENTED_EDGE('',*,*,#1026,.T.);
#1116=ORIENTED_EDGE('',*,*,#1117,.F.);
#1117=EDGE_CURVE('',#1118,#1021,#1120,.T.);
#1118=VERTEX_POINT('',#1119);
#1119=CARTESIAN_POINT('',(2.55,-5.E-02,7.9));
#1120=LINE('',#1119,#1121);
#1121=VECTOR('',#1000,1.);
#1122=ORIENTED_EDGE('',*,*,#1123,.F.);
#1123=EDGE_CURVE('',#1049,#1118,#1124,.T.);
#1124=LINE('',#1125,#124);
#1125=CARTESIAN_POINT('',(2.55,-13.55,7.9));
#1126=PLANE('',#1127);
#1127=AXIS2_PLACEMENT_3D('',#1128,#13,#14);
#1128=CARTESIAN_POINT('',(2.5,3.859287672462E-16,7.9));
#1129=ADVANCED_FACE('',(#1130),#1140,.F.);
#1130=FACE_BOUND('',#1131,.F.);
#1131=EDGE_LOOP('',(#1116,#1132,#1137,#1019));
#1132=ORIENTED_EDGE('',*,*,#1133,.T.);
#1133=EDGE_CURVE('',#1118,#1134,#1136,.T.);
#1134=VERTEX_POINT('',#1135);
#1135=CARTESIAN_POINT('',(2.55,-5.E-02,7.8));
#1136=LINE('',#1119,#1007);
#1137=ORIENTED_EDGE('',*,*,#1138,.T.);
#1138=EDGE_CURVE('',#1134,#1017,#1139,.T.);
#1139=LINE('',#1135,#1121);
#1140=PLANE('',#1141);
#1141=AXIS2_PLACEMENT_3D('',#1119,#1142,#1000);
#1142=DIRECTION('',(0.,-1.,0.));
#1143=ADVANCED_FACE('',(#1144),#1187,.T.);
#1144=FACE_BOUND('',#1145,.T.);
#1145=EDGE_LOOP('',(#1146,#1154,#1157,#1158,#1165,#1170,#1171,#1177,#1180,#1181,#1137,#1185,#1186));
#1146=ORIENTED_EDGE('',*,*,#1147,.T.);
#1147=EDGE_CURVE('',#1003,#1148,#1150,.T.);
#1148=VERTEX_POINT('',#1149);
#1149=CARTESIAN_POINT('',(2.55,5.E-02,7.8));
#1150=LINE('',#1151,#1152);
#1151=CARTESIAN_POINT('',(16.05,5.E-02,7.8));
#1152=VECTOR('',#1153,1.);
#1153=DIRECTION('',(-1.,-9.303257752646E-17,0.));
#1154=ORIENTED_EDGE('',*,*,#1155,.T.);
#1155=EDGE_CURVE('',#1148,#1099,#1156,.T.);
#1156=LINE('',#1149,#124);
#1157=ORIENTED_EDGE('',*,*,#1098,.F.);
#1158=ORIENTED_EDGE('',*,*,#1159,.T.);
#1159=EDGE_CURVE('',#1093,#1160,#1162,.T.);
#1160=VERTEX_POINT('',#1161);
#1161=CARTESIAN_POINT('',(2.45,5.E-02,7.8));
#1162=LINE('',#1163,#1164);
#1163=CARTESIAN_POINT('',(2.45,13.55,7.8));
#1164=VECTOR('',#1142,1.);
#1165=ORIENTED_EDGE('',*,*,#1166,.T.);
#1166=EDGE_CURVE('',#1160,#1079,#1167,.T.);
#1167=LINE('',#1161,#1168);
#1168=VECTOR('',#1169,1.);
#1169=DIRECTION('',(-1.,0.,0.));
#1170=ORIENTED_EDGE('',*,*,#1078,.F.);
#1171=ORIENTED_EDGE('',*,*,#1172,.T.);
#1172=EDGE_CURVE('',#1073,#1173,#1175,.T.);
#1173=VERTEX_POINT('',#1174);
#1174=CARTESIAN_POINT('',(2.45,-5.E-02,7.8));
#1175=LINE('',#1176,#1121);
#1176=CARTESIAN_POINT('',(-11.05,-5.E-02,7.8));
#1177=ORIENTED_EDGE('',*,*,#1178,.T.);
#1178=EDGE_CURVE('',#1173,#1059,#1179,.T.);
#1179=LINE('',#1174,#1164);
#1180=ORIENTED_EDGE('',*,*,#1058,.F.);
#1181=ORIENTED_EDGE('',*,*,#1182,.T.);
#1182=EDGE_CURVE('',#1053,#1134,#1183,.T.);
#1183=LINE('',#1184,#124);
#1184=CARTESIAN_POINT('',(2.55,-13.55,7.8));
#1185=ORIENTED_EDGE('',*,*,#1016,.F.);
#1186=ORIENTED_EDGE('',*,*,#1010,.F.);
#1187=PLANE('',#1188);
#1188=AXIS2_PLACEMENT_3D('',#1189,#13,#14);
#1189=CARTESIAN_POINT('',(2.5,5.689380905713E-16,7.8));
#1190=ADVANCED_FACE('',(#1191),#1202,.F.);
#1191=FACE_BOUND('',#1192,.F.);
#1192=EDGE_LOOP('',(#1193,#1001,#1146,#1199));
#1193=ORIENTED_EDGE('',*,*,#1194,.F.);
#1194=EDGE_CURVE('',#995,#1195,#1197,.T.);
#1195=VERTEX_POINT('',#1196);
#1196=CARTESIAN_POINT('',(2.55,5.E-02,7.9));
#1197=LINE('',#1198,#1152);
#1198=CARTESIAN_POINT('',(16.05,5.E-02,7.9));
#1199=ORIENTED_EDGE('',*,*,#1200,.F.);
#1200=EDGE_CURVE('',#1195,#1148,#1201,.T.);
#1201=LINE('',#1196,#1007);
#1202=PLANE('',#1203);
#1203=AXIS2_PLACEMENT_3D('',#1198,#1204,#1153);
#1204=DIRECTION('',(-9.303257752646E-17,1.,0.));
#1205=ADVANCED_FACE('',(#1206),#1126,.T.);
#1206=FACE_BOUND('',#1207,.T.);
#1207=EDGE_LOOP('',(#1193,#1208,#1209,#1210));
#1208=ORIENTED_EDGE('',*,*,#994,.T.);
#1209=ORIENTED_EDGE('',*,*,#1108,.T.);
#1210=ORIENTED_EDGE('',*,*,#1211,.F.);
#1211=EDGE_CURVE('',#1195,#1103,#1212,.T.);
#1212=LINE('',#1196,#124);
#1213=ADVANCED_FACE('',(#1214),#1217,.F.);
#1214=FACE_BOUND('',#1215,.F.);
#1215=EDGE_LOOP('',(#1210,#1216,#1154,#1101));
#1216=ORIENTED_EDGE('',*,*,#1200,.T.);
#1217=PLANE('',#1218);
#1218=AXIS2_PLACEMENT_3D('',#1196,#1000,#1219);
#1219=DIRECTION('',(-0.,1.,0.));
#1220=ADVANCED_FACE('',(#1221),#1232,.F.);
#1221=FACE_BOUND('',#1222,.F.);
#1222=EDGE_LOOP('',(#1223,#1091,#1158,#1229));
#1223=ORIENTED_EDGE('',*,*,#1224,.F.);
#1224=EDGE_CURVE('',#1089,#1225,#1227,.T.);
#1225=VERTEX_POINT('',#1226);
#1226=CARTESIAN_POINT('',(2.45,5.E-02,7.9));
#1227=LINE('',#1228,#1164);
#1228=CARTESIAN_POINT('',(2.45,13.55,7.9));
#1229=ORIENTED_EDGE('',*,*,#1230,.F.);
#1230=EDGE_CURVE('',#1225,#1160,#1231,.T.);
#1231=LINE('',#1226,#1007);
#1232=PLANE('',#1233);
#1233=AXIS2_PLACEMENT_3D('',#1228,#1169,#1142);
#1234=ADVANCED_FACE('',(#1235),#1126,.T.);
#1235=FACE_BOUND('',#1236,.T.);
#1236=EDGE_LOOP('',(#1223,#1237,#1238));
#1237=ORIENTED_EDGE('',*,*,#1088,.T.);
#1238=ORIENTED_EDGE('',*,*,#1239,.F.);
#1239=EDGE_CURVE('',#1225,#1083,#1240,.T.);
#1240=LINE('',#1226,#1168);
#1241=ADVANCED_FACE('',(#1242),#1245,.F.);
#1242=FACE_BOUND('',#1243,.F.);
#1243=EDGE_LOOP('',(#1238,#1244,#1165,#1081));
#1244=ORIENTED_EDGE('',*,*,#1230,.T.);
#1245=PLANE('',#1246);
#1246=AXIS2_PLACEMENT_3D('',#1226,#1247,#1169);
#1247=DIRECTION('',(0.,1.,-0.));
#1248=ADVANCED_FACE('',(#1249),#1260,.F.);
#1249=FACE_BOUND('',#1250,.F.);
#1250=EDGE_LOOP('',(#1251,#1071,#1171,#1257));
#1251=ORIENTED_EDGE('',*,*,#1252,.F.);
#1252=EDGE_CURVE('',#1069,#1253,#1255,.T.);
#1253=VERTEX_POINT('',#1254);
#1254=CARTESIAN_POINT('',(2.45,-5.E-02,7.9));
#1255=LINE('',#1256,#1121);
#1256=CARTESIAN_POINT('',(-11.05,-5.E-02,7.9));
#1257=ORIENTED_EDGE('',*,*,#1258,.F.);
#1258=EDGE_CURVE('',#1253,#1173,#1259,.T.);
#1259=LINE('',#1254,#1007);
#1260=PLANE('',#1261);
#1261=AXIS2_PLACEMENT_3D('',#1256,#1142,#1000);
#1262=ADVANCED_FACE('',(#1263),#1126,.T.);
#1263=FACE_BOUND('',#1264,.T.);
#1264=EDGE_LOOP('',(#1265,#1266,#1251));
#1265=ORIENTED_EDGE('',*,*,#1068,.T.);
#1266=ORIENTED_EDGE('',*,*,#1267,.F.);
#1267=EDGE_CURVE('',#1253,#1063,#1268,.T.);
#1268=LINE('',#1254,#1164);
#1269=ADVANCED_FACE('',(#1270),#1273,.F.);
#1270=FACE_BOUND('',#1271,.F.);
#1271=EDGE_LOOP('',(#1266,#1272,#1177,#1061));
#1272=ORIENTED_EDGE('',*,*,#1258,.T.);
#1273=PLANE('',#1274);
#1274=AXIS2_PLACEMENT_3D('',#1254,#1169,#1142);
#1275=ADVANCED_FACE('',(#1276),#1279,.F.);
#1276=FACE_BOUND('',#1277,.F.);
#1277=EDGE_LOOP('',(#1122,#1051,#1181,#1278));
#1278=ORIENTED_EDGE('',*,*,#1133,.F.);
#1279=PLANE('',#1280);
#1280=AXIS2_PLACEMENT_3D('',#1125,#1000,#1219);
#1281=ORIENTED_CLOSED_SHELL('',*,#1282,.F.);
#1282=CLOSED_SHELL('',(#1283,#1304,#1321,#1332,#1344));
#1283=ADVANCED_FACE('',(#1284),#1302,.F.);
#1284=FACE_BOUND('',#1285,.F.);
#1285=EDGE_LOOP('',(#1286,#1295,#1299));
#1286=ORIENTED_EDGE('',*,*,#1287,.T.);
#1287=EDGE_CURVE('',#1288,#1290,#1292,.T.);
#1288=VERTEX_POINT('',#1289);
#1289=CARTESIAN_POINT('',(6.865330791116,1.808179217925,7.6));
#1290=VERTEX_POINT('',#1291);
#1291=CARTESIAN_POINT('',(6.865330791116,-1.808179217925,7.6));
#1292=CIRCLE('',#1293,4.725);
#1293=AXIS2_PLACEMENT_3D('',#1294,#35,#36);
#1294=CARTESIAN_POINT('',(2.5,0.,7.6));
#1295=ORIENTED_EDGE('',*,*,#1296,.T.);
#1296=EDGE_CURVE('',#1290,#1297,#1298,.T.);
#1297=VERTEX_POINT('',#1294);
#1298=LINE('',#1291,#928);
#1299=ORIENTED_EDGE('',*,*,#1300,.F.);
#1300=EDGE_CURVE('',#1288,#1297,#1301,.T.);
#1301=LINE('',#1289,#918);
#1302=PLANE('',#1303);
#1303=AXIS2_PLACEMENT_3D('',#1294,#13,#36);
#1304=ADVANCED_FACE('',(#1305),#1109,.T.);
#1305=FACE_BOUND('',#1306,.F.);
#1306=EDGE_LOOP('',(#1307,#1311,#1318,#1320));
#1307=ORIENTED_EDGE('',*,*,#1308,.F.);
#1308=EDGE_CURVE('',#1309,#1288,#992,.T.);
#1309=VERTEX_POINT('',#1310);
#1310=CARTESIAN_POINT('',(6.865330791116,1.808179217925,7.7));
#1311=ORIENTED_EDGE('',*,*,#1312,.T.);
#1312=EDGE_CURVE('',#1309,#1313,#1315,.T.);
#1313=VERTEX_POINT('',#1314);
#1314=CARTESIAN_POINT('',(6.865330791116,-1.808179217925,7.7));
#1315=CIRCLE('',#1316,4.725);
#1316=AXIS2_PLACEMENT_3D('',#1317,#13,#1000);
#1317=CARTESIAN_POINT('',(2.5,0.,7.7));
#1318=ORIENTED_EDGE('',*,*,#1319,.T.);
#1319=EDGE_CURVE('',#1313,#1290,#986,.T.);
#1320=ORIENTED_EDGE('',*,*,#1287,.F.);
#1321=ADVANCED_FACE('',(#1322),#1330,.F.);
#1322=FACE_BOUND('',#1323,.F.);
#1323=EDGE_LOOP('',(#1324,#1328,#1329));
#1324=ORIENTED_EDGE('',*,*,#1325,.T.);
#1325=EDGE_CURVE('',#1290,#1288,#1326,.T.);
#1326=CIRCLE('',#1327,4.725);
#1327=AXIS2_PLACEMENT_3D('',#1294,#90,#91);
#1328=ORIENTED_EDGE('',*,*,#1300,.T.);
#1329=ORIENTED_EDGE('',*,*,#1296,.F.);
#1330=PLANE('',#1331);
#1331=AXIS2_PLACEMENT_3D('',#1294,#13,#91);
#1332=ADVANCED_FACE('',(#1333),#1027,.T.);
#1333=FACE_BOUND('',#1334,.F.);
#1334=EDGE_LOOP('',(#1335,#1336,#1340,#1342,#1343));
#1335=ORIENTED_EDGE('',*,*,#1319,.F.);
#1336=ORIENTED_EDGE('',*,*,#1337,.T.);
#1337=EDGE_CURVE('',#1313,#1338,#1315,.T.);
#1338=VERTEX_POINT('',#1339);
#1339=CARTESIAN_POINT('',(7.225,0.,7.7));
#1340=ORIENTED_EDGE('',*,*,#1341,.T.);
#1341=EDGE_CURVE('',#1338,#1309,#1315,.T.);
#1342=ORIENTED_EDGE('',*,*,#1308,.T.);
#1343=ORIENTED_EDGE('',*,*,#1325,.F.);
#1344=ADVANCED_FACE('',(#1345),#1347,.T.);
#1345=FACE_BOUND('',#1346,.T.);
#1346=EDGE_LOOP('',(#1340,#1311,#1336));
#1347=PLANE('',#1348);
#1348=AXIS2_PLACEMENT_3D('',#1349,#13,#14);
#1349=CARTESIAN_POINT('',(2.5,3.859287672462E-16,7.7));
#1350=( GEOMETRIC_REPRESENTATION_CONTEXT(3) GLOBAL_UNCERTAINTY_ASSIGNED_CONTEXT((#1354)) GLOBAL_UNIT_ASSIGNED_CONTEXT((#1351,#1352,#1353)) REPRESENTATION_CONTEXT('Context #1','3D Context with UNIT and UNCERTAINTY') );
#1351=( LENGTH_UNIT() NAMED_UNIT(*) SI_UNIT(.MILLI.,.METRE.) );
#1352=( NAMED_UNIT(*) PLANE_ANGLE_UNIT() SI_UNIT($,.RADIAN.) );
#1353=( NAMED_UNIT(*) SI_UNIT($,.STERADIAN.) SOLID_ANGLE_UNIT() );
#1354=UNCERTAINTY_MEASURE_WITH_UNIT(LENGTH_MEASURE(2.E-06),#1351,'distance_accuracy_value','confusion accuracy');
#1355=PRODUCT_RELATED_PRODUCT_CATEGORY('part',$,(#7));
#1356=MECHANICAL_DESIGN_GEOMETRIC_PRESENTATION_REPRESENTATION('',(#1357,#1367,#1376,#1377,#1378,#1379,#1380,#1389,#1390,#1391,#1392,#1393,#1394,#1395,#1396,#1397,#1398,#1399,#1400,#1401,#1402,#1403,#1404,#1405,#1406,#1407,#1416,#1417,#1418,#1419,#1420,#1421,#1422,#1423,#1424,#1425,#1426,#1427,#1428,#1429,#1430,#1431,#1432,#1433,#1434,#1435,#1436,#1437,#1438,#1439,#1440,#1441,#1442,#1443),#1350);
#1357=STYLED_ITEM('color',(#1358),#17);
#1358=PRESENTATION_STYLE_ASSIGNMENT((#1359,#1365));
#1359=SURFACE_STYLE_USAGE(.BOTH.,#1360);
#1360=SURFACE_SIDE_STYLE('',(#1361));
#1361=SURFACE_STYLE_FILL_AREA(#1362);
#1362=FILL_AREA_STYLE('',(#1363));
#1363=FILL_AREA_STYLE_COLOUR('',#1364);
#1364=COLOUR_RGB('',0.137000000793,0.401999991578,0.726999997272);
#1365=CURVE_STYLE('',#1366,POSITIVE_LENGTH_MEASURE(0.1),#1364);
#1366=DRAUGHTING_PRE_DEFINED_CURVE_FONT('continuous');
#1367=STYLED_ITEM('color',(#1368),#82);
#1368=PRESENTATION_STYLE_ASSIGNMENT((#1369,#1375));
#1369=SURFACE_STYLE_USAGE(.BOTH.,#1370);
#1370=SURFACE_SIDE_STYLE('',(#1371));
#1371=SURFACE_STYLE_FILL_AREA(#1372);
#1372=FILL_AREA_STYLE('',(#1373));
#1373=FILL_AREA_STYLE_COLOUR('',#1374);
#1374=COLOUR_RGB('',0.690999998585,0.664000007176,0.597999987832);
#1375=CURVE_STYLE('',#1366,POSITIVE_LENGTH_MEASURE(0.1),#1374);
#1376=STYLED_ITEM('color',(#1358),#148);
#1377=STYLED_ITEM('color',(#1358),#247);
#1378=STYLED_ITEM('color',(#1368),#275);
#1379=STYLED_ITEM('color',(#1368),#291);
#1380=STYLED_ITEM('color',(#1381),#352);
#1381=PRESENTATION_STYLE_ASSIGNMENT((#1382,#1388));
#1382=SURFACE_STYLE_USAGE(.BOTH.,#1383);
#1383=SURFACE_SIDE_STYLE('',(#1384));
#1384=SURFACE_STYLE_FILL_AREA(#1385);
#1385=FILL_AREA_STYLE('',(#1386));
#1386=FILL_AREA_STYLE_COLOUR('',#1387);
#1387=COLOUR_RGB('',0.147999998088,0.145000001626,0.145000001626);
#1388=CURVE_STYLE('',#1366,POSITIVE_LENGTH_MEASURE(0.1),#1387);
#1389=STYLED_ITEM('color',(#1368),#363);
#1390=STYLED_ITEM('color',(#1368),#418);
#1391=STYLED_ITEM('color',(#1368),#425);
#1392=STYLED_ITEM('color',(#1358),#436);
#1393=STYLED_ITEM('color',(#1358),#482);
#1394=STYLED_ITEM('color',(#1368),#506);
#1395=STYLED_ITEM('color',(#1368),#524);
#1396=STYLED_ITEM('color',(#1381),#664);
#1397=STYLED_ITEM('color',(#1368),#677);
#1398=STYLED_ITEM('color',(#1368),#689);
#1399=STYLED_ITEM('color',(#1358),#702);
#1400=STYLED_ITEM('color',(#1358),#780);
#1401=STYLED_ITEM('color',(#1358),#803);
#1402=STYLED_ITEM('color',(#1368),#814);
#1403=STYLED_ITEM('color',(#1381),#842);
#1404=STYLED_ITEM('color',(#1381),#851);
#1405=STYLED_ITEM('color',(#1368),#862);
#1406=STYLED_ITEM('color',(#1358),#872);
#1407=OVER_RIDING_STYLED_ITEM('overriding color',(#1408),#878,#1406);
#1408=PRESENTATION_STYLE_ASSIGNMENT((#1409,#1415));
#1409=SURFACE_STYLE_USAGE(.BOTH.,#1410);
#1410=SURFACE_SIDE_STYLE('',(#1411));
#1411=SURFACE_STYLE_FILL_AREA(#1412);
#1412=FILL_AREA_STYLE('',(#1413));
#1413=FILL_AREA_STYLE_COLOUR('',#1414);
#1414=COLOUR_RGB('',0.823999987314,0.819999987296,0.781000009244);
#1415=CURVE_STYLE('',#1366,POSITIVE_LENGTH_MEASURE(0.1),#1414);
#1416=OVER_RIDING_STYLED_ITEM('overriding color',(#1408),#888,#1406);
#1417=STYLED_ITEM('color',(#1358),#897);
#1418=STYLED_ITEM('color',(#1368),#909);
#1419=STYLED_ITEM('color',(#1408),#932);
#1420=STYLED_ITEM('color',(#1408),#950);
#1421=STYLED_ITEM('color',(#1358),#968);
#1422=STYLED_ITEM('color',(#1368),#979);
#1423=STYLED_ITEM('color',(#1408),#1029);
#1424=STYLED_ITEM('color',(#1408),#1035);
#1425=STYLED_ITEM('color',(#1358),#1041);
#1426=STYLED_ITEM('color',(#1408),#1111);
#1427=STYLED_ITEM('color',(#1408),#1129);
#1428=STYLED_ITEM('color',(#1408),#1143);
#1429=STYLED_ITEM('color',(#1408),#1190);
#1430=STYLED_ITEM('color',(#1408),#1205);
#1431=STYLED_ITEM('color',(#1408),#1213);
#1432=STYLED_ITEM('color',(#1408),#1220);
#1433=STYLED_ITEM('color',(#1408),#1234);
#1434=STYLED_ITEM('color',(#1408),#1241);
#1435=STYLED_ITEM('color',(#1408),#1248);
#1436=STYLED_ITEM('color',(#1408),#1262);
#1437=STYLED_ITEM('color',(#1408),#1269);
#1438=STYLED_ITEM('color',(#1408),#1275);
#1439=STYLED_ITEM('color',(#1358),#1283);
#1440=STYLED_ITEM('color',(#1358),#1304);
#1441=STYLED_ITEM('color',(#1368),#1321);
#1442=STYLED_ITEM('color',(#1368),#1332);
#1443=STYLED_ITEM('color',(#1408),#1344);
ENDSEC;
END-ISO-10303-21;
